<svg version="1.1" viewBox="0.0 0.0 960.0 540.0" fill="none" stroke="none" stroke-linecap="square" stroke-miterlimit="10" xmlns:xlink="http://www.w3.org/1999/xlink" xmlns="http://www.w3.org/2000/svg"><clipPath id="g2bb2b6b8a42_0_80.0"><path d="m0 0l960.0 0l0 540.0l-960.0 0l0 -540.0z" clip-rule="nonzero"/></clipPath><g clip-path="url(#g2bb2b6b8a42_0_80.0)"><path fill="#ffffff" d="m0 0l960.0 0l0 540.0l-960.0 0z" fill-rule="evenodd"/><path fill="#000000" fill-opacity="0.0" d="m59.902885 85.62205l204.50394 0l0 48.472435l-204.50394 0z" fill-rule="evenodd"/><path fill="#595959" d="m74.66851 117.78705q-1.5625 0 -2.953125 -0.4375q-1.390625 -0.453125 -2.1875 -1.125l0.765625 -1.34375q0.765625 0.578125 1.96875 1.0q1.203125 0.40625 2.515625 0.40625q1.8125 0 2.59375 -0.5625q0.796875 -0.5625 0.796875 -1.5q0 -0.6875 -0.453125 -1.078125q-0.4375 -0.40625 -1.15625 -0.609375q-0.71875 -0.203125 -1.609375 -0.34375q-0.890625 -0.140625 -1.765625 -0.328125q-0.875 -0.203125 -1.59375 -0.578125q-0.71875 -0.375 -1.171875 -1.015625q-0.4375 -0.65625 -0.4375 -1.734375q0 -1.03125 0.578125 -1.84375q0.578125 -0.8125 1.6875 -1.28125q1.125 -0.46875 2.734375 -0.46875q1.21875 0 2.4375 0.328125q1.234375 0.3125 2.015625 0.84375l-0.734375 1.375q-0.84375 -0.578125 -1.8125 -0.828125q-0.953125 -0.25 -1.90625 -0.25q-1.703125 0 -2.515625 0.59375q-0.796875 0.578125 -0.796875 1.484375q0 0.71875 0.4375 1.140625q0.4375 0.40625 1.171875 0.640625q0.734375 0.21875 1.609375 0.359375q0.875 0.140625 1.75 0.34375q0.875 0.203125 1.609375 0.5625q0.734375 0.34375 1.171875 0.984375q0.453125 0.625 0.453125 1.65625q0 1.109375 -0.609375 1.921875q-0.609375 0.796875 -1.78125 1.25q-1.15625 0.4375 -2.8125 0.4375zm12.30571 0q-1.78125 0 -2.75 -0.953125q-0.953125 -0.96875 -0.953125 -2.71875l0 -11.84375l1.71875 0l0 11.75q0 1.09375 0.5625 1.703125q0.5625 0.59375 1.609375 0.59375q1.140625 0 1.875 -0.640625l0.609375 1.21875q-0.515625 0.453125 -1.21875 0.671875q-0.703125 0.21875 -1.453125 0.21875zm-5.953125 -11.3125l0 -1.40625l7.796875 0l0 1.40625l-7.796875 0zm16.397354 11.3125q-1.828125 0 -3.28125 -0.828125q-1.453125 -0.828125 -2.296875 -2.28125q-0.828125 -1.453125 -0.828125 -3.328125q0 -1.890625 0.828125 -3.328125q0.84375 -1.453125 2.28125 -2.265625q1.4375 -0.8125 3.296875 -0.8125q1.875 0 3.3125 0.8125q1.453125 0.8125 2.28125 2.265625q0.828125 1.4375 0.828125 3.328125q0 1.875 -0.828125 3.328125q-0.828125 1.453125 -2.296875 2.28125q-1.453125 0.828125 -3.296875 0.828125zm0 -1.515625q1.359375 0 2.40625 -0.609375q1.0625 -0.609375 1.671875 -1.71875q0.625 -1.125 0.625 -2.59375q0 -1.484375 -0.625 -2.59375q-0.609375 -1.109375 -1.671875 -1.71875q-1.046875 -0.609375 -2.390625 -0.609375q-1.34375 0 -2.40625 0.609375q-1.046875 0.609375 -1.671875 1.71875q-0.625 1.109375 -0.625 2.59375q0 1.46875 0.625 2.59375q0.625 1.109375 1.671875 1.71875q1.0625 0.609375 2.390625 0.609375zm15.141708 1.515625q-1.875 0 -3.359375 -0.828125q-1.46875 -0.828125 -2.3125 -2.28125q-0.828125 -1.453125 -0.828125 -3.328125q0 -1.890625 0.828125 -3.328125q0.84375 -1.453125 2.3125 -2.265625q1.484375 -0.8125 3.359375 -0.8125q1.609375 0 2.90625 0.625q1.296875 0.625 2.03125 1.875l-1.265625 0.859375q-0.65625 -0.953125 -1.609375 -1.40625q-0.953125 -0.46875 -2.09375 -0.46875q-1.34375 0 -2.421875 0.609375q-1.078125 0.609375 -1.703125 1.71875q-0.625 1.109375 -0.625 2.59375q0 1.484375 0.625 2.59375q0.625 1.109375 1.703125 1.71875q1.078125 0.609375 2.421875 0.609375q1.140625 0 2.09375 -0.453125q0.953125 -0.453125 1.609375 -1.390625l1.265625 0.859375q-0.734375 1.21875 -2.03125 1.859375q-1.296875 0.640625 -2.90625 0.640625zm9.429337 -3.390625l0.046875 -2.1875l7.8437576 -7.140625l2.09375 0l-5.5468826 5.296875l-0.953125 0.8125l-3.484375 3.21875zm-1.34375 3.265625l0 -17.8125l1.703125 0l0 17.8125l-1.703125 0zm9.765633 0l-5.2500076 -6.546875l1.09375 -1.328125l6.2500076 7.875l-2.09375 0z" fill-rule="nonzero"/><path fill="#eeeeee" d="m71.28609 125.63517l370.36218 0l0 44.97637l-370.36218 0z" fill-rule="evenodd"/><path stroke="#595959" stroke-width="1.0" stroke-linejoin="round" stroke-linecap="butt" d="m71.28609 125.63517l370.36218 0l0 44.97637l-370.36218 0z" fill-rule="evenodd"/><path fill="#000000" fill-opacity="0.0" d="m71.28609 129.54068l201.00789 0l0 37.16536l-201.00789 0z" fill-rule="evenodd"/><path fill="#ff0000" d="m86.55171 152.62068l0 -1.703125l-0.03125 -0.28125l0 -2.84375q0 -0.96875 -0.5625 -1.5q-0.546875 -0.53125 -1.625 -0.53125q-0.75 0 -1.421875 0.25q-0.671875 0.25 -1.140625 0.65625l-0.46875 -0.78125q0.578125 -0.484375 1.390625 -0.75q0.828125 -0.28125 1.734375 -0.28125q1.5 0 2.3125 0.75q0.8125 0.734375 0.8125 2.234375l0 4.78125l-1.0 0zm-2.640625 0.078125q-0.875 0 -1.515625 -0.28125q-0.625 -0.296875 -0.96875 -0.796875q-0.328125 -0.515625 -0.328125 -1.171875q0 -0.59375 0.28125 -1.078125q0.28125 -0.5 0.9375 -0.796875q0.65625 -0.3125 1.75 -0.3125l2.65625 0l0 0.78125l-2.625 0q-1.109375 0 -1.546875 0.40625q-0.4375 0.390625 -0.4375 0.96875q0 0.671875 0.515625 1.0625q0.515625 0.390625 1.4375 0.390625q0.875 0 1.515625 -0.390625q0.640625 -0.40625 0.9375 -1.171875l0.234375 0.71875q-0.296875 0.765625 -1.03125 1.21875q-0.71875 0.453125 -1.8125 0.453125zm11.287842 -0.078125l0 -1.703125l-0.03125 -0.28125l0 -2.84375q0 -0.96875 -0.5625 -1.5q-0.546875 -0.53125 -1.625 -0.53125q-0.75 0 -1.421875 0.25q-0.671875 0.25 -1.140625 0.65625l-0.46875 -0.78125q0.578125 -0.484375 1.390625 -0.75q0.828125 -0.28125 1.734375 -0.28125q1.5 0 2.3125 0.75q0.8125 0.734375 0.8125 2.234375l0 4.78125l-1.0 0zm-2.640625 0.078125q-0.875 0 -1.515625 -0.28125q-0.625 -0.296875 -0.96875 -0.796875q-0.328125 -0.515625 -0.328125 -1.171875q0 -0.59375 0.28125 -1.078125q0.28125 -0.5 0.9375 -0.796875q0.65625 -0.3125 1.75 -0.3125l2.65625 0l0 0.78125l-2.625 0q-1.109375 0 -1.546875 0.40625q-0.4375 0.390625 -0.4375 0.96875q0 0.671875 0.515625 1.0625q0.515625 0.390625 1.4375 0.390625q0.875 0 1.515625 -0.390625q0.640625 -0.40625 0.9375 -1.171875l0.234375 0.71875q-0.296875 0.765625 -1.03125 1.21875q-0.71875 0.453125 -1.8125 0.453125zm11.287842 -0.078125l0 -1.703125l-0.03125 -0.28125l0 -2.84375q0 -0.96875 -0.5625 -1.5q-0.546875 -0.53125 -1.625 -0.53125q-0.75 0 -1.421875 0.25q-0.671875 0.25 -1.140625 0.65625l-0.46875 -0.78125q0.578125 -0.484375 1.390625 -0.75q0.828125 -0.28125 1.734375 -0.28125q1.5 0 2.3125 0.75q0.8125 0.734375 0.8125 2.234375l0 4.78125l-1.0 0zm-2.640625 0.078125q-0.875 0 -1.515625 -0.28125q-0.625 -0.296875 -0.96875 -0.796875q-0.328125 -0.515625 -0.328125 -1.171875q0 -0.59375 0.28125 -1.078125q0.28125 -0.5 0.9375 -0.796875q0.65625 -0.3125 1.75 -0.3125l2.65625 0l0 0.78125l-2.625 0q-1.109375 0 -1.546875 0.40625q-0.4375 0.390625 -0.4375 0.96875q0 0.671875 0.515625 1.0625q0.515625 0.390625 1.4375 0.390625q0.875 0 1.515625 -0.390625q0.640625 -0.40625 0.9375 -1.171875l0.234375 0.71875q-0.296875 0.765625 -1.03125 1.21875q-0.71875 0.453125 -1.8125 0.453125zm10.444092 0q-1.015625 0 -1.828125 -0.453125q-0.796875 -0.46875 -1.265625 -1.34375q-0.46875 -0.890625 -0.46875 -2.140625q0 -1.25 0.46875 -2.125q0.484375 -0.875 1.28125 -1.328125q0.8125 -0.453125 1.8125 -0.453125q1.09375 0 1.96875 0.5q0.875 0.484375 1.375 1.359375q0.5 0.875 0.5 2.046875q0 1.15625 -0.5 2.046875q-0.5 0.890625 -1.375 1.390625q-0.875 0.5 -1.96875 0.5zm-3.96875 -0.078125l0 -10.875l1.03125 0l0 5.453125l-0.140625 1.546875l0.109375 1.5625l0 2.3125l-1.0 0zm3.890625 -0.84375q0.828125 0 1.46875 -0.375q0.640625 -0.375 1.015625 -1.046875q0.390625 -0.6875 0.390625 -1.59375q0 -0.90625 -0.390625 -1.578125q-0.375 -0.671875 -1.015625 -1.046875q-0.640625 -0.375 -1.46875 -0.375q-0.8125 0 -1.46875 0.375q-0.65625 0.375 -1.03125 1.046875q-0.359375 0.671875 -0.359375 1.578125q0 0.90625 0.359375 1.59375q0.375 0.671875 1.03125 1.046875q0.65625 0.375 1.46875 0.375z" fill-rule="nonzero"/><path fill="#00ff00" d="m121.58659 152.6988q-1.015625 0 -1.828125 -0.453125q-0.796875 -0.46875 -1.265625 -1.34375q-0.46875 -0.890625 -0.46875 -2.140625q0 -1.25 0.46875 -2.125q0.484375 -0.875 1.28125 -1.328125q0.8125 -0.453125 1.8125 -0.453125q1.09375 0 1.96875 0.5q0.875 0.484375 1.375 1.359375q0.5 0.875 0.5 2.046875q0 1.15625 -0.5 2.046875q-0.5 0.890625 -1.375 1.390625q-0.875 0.5 -1.96875 0.5zm-3.96875 -0.078125l0 -10.875l1.03125 0l0 5.453125l-0.140625 1.546875l0.109375 1.5625l0 2.3125l-1.0 0zm3.890625 -0.84375q0.828125 0 1.46875 -0.375q0.640625 -0.375 1.015625 -1.046875q0.390625 -0.6875 0.390625 -1.59375q0 -0.90625 -0.390625 -1.578125q-0.375 -0.671875 -1.015625 -1.046875q-0.640625 -0.375 -1.46875 -0.375q-0.8125 0 -1.46875 0.375q-0.65625 0.375 -1.03125 1.046875q-0.359375 0.671875 -0.359375 1.578125q0 0.90625 0.359375 1.59375q0.375 0.671875 1.03125 1.046875q0.65625 0.375 1.46875 0.375zm10.015106 0.921875q-1.015625 0 -1.828125 -0.453125q-0.796875 -0.46875 -1.265625 -1.34375q-0.46875 -0.890625 -0.46875 -2.140625q0 -1.25 0.46875 -2.125q0.484375 -0.875 1.28125 -1.328125q0.8125 -0.453125 1.8125 -0.453125q1.09375 0 1.96875 0.5q0.875 0.484375 1.375 1.359375q0.5 0.875 0.5 2.046875q0 1.15625 -0.5 2.046875q-0.5 0.890625 -1.375 1.390625q-0.875 0.5 -1.96875 0.5zm-3.96875 -0.078125l0 -10.875l1.03125 0l0 5.453125l-0.140625 1.546875l0.109375 1.5625l0 2.3125l-1.0 0zm3.890625 -0.84375q0.828125 0 1.46875 -0.375q0.640625 -0.375 1.015625 -1.046875q0.390625 -0.6875 0.390625 -1.59375q0 -0.90625 -0.390625 -1.578125q-0.375 -0.671875 -1.015625 -1.046875q-0.640625 -0.375 -1.46875 -0.375q-0.8125 0 -1.46875 0.375q-0.65625 0.375 -1.03125 1.046875q-0.359375 0.671875 -0.359375 1.578125q0 0.90625 0.359375 1.59375q0.375 0.671875 1.03125 1.046875q0.65625 0.375 1.46875 0.375zm9.233856 0.921875q-1.140625 0 -2.046875 -0.5q-0.890625 -0.515625 -1.40625 -1.40625q-0.515625 -0.890625 -0.515625 -2.03125q0 -1.15625 0.515625 -2.03125q0.515625 -0.875 1.40625 -1.375q0.90625 -0.5 2.046875 -0.5q0.984375 0 1.765625 0.390625q0.796875 0.375 1.265625 1.125l-0.78125 0.53125q-0.390625 -0.578125 -0.984375 -0.859375q-0.59375 -0.28125 -1.28125 -0.28125q-0.8125 0 -1.484375 0.375q-0.65625 0.375 -1.03125 1.046875q-0.375 0.671875 -0.375 1.578125q0 0.90625 0.375 1.59375q0.375 0.671875 1.03125 1.046875q0.671875 0.375 1.484375 0.375q0.6875 0 1.28125 -0.28125q0.59375 -0.28125 0.984375 -0.859375l0.78125 0.53125q-0.46875 0.75 -1.265625 1.140625q-0.78125 0.390625 -1.765625 0.390625zm8.119492 0q-1.140625 0 -2.046875 -0.5q-0.890625 -0.515625 -1.40625 -1.40625q-0.515625 -0.890625 -0.515625 -2.03125q0 -1.15625 0.515625 -2.03125q0.515625 -0.875 1.40625 -1.375q0.90625 -0.5 2.046875 -0.5q0.984375 0 1.765625 0.390625q0.796875 0.375 1.265625 1.125l-0.78125 0.53125q-0.390625 -0.578125 -0.984375 -0.859375q-0.59375 -0.28125 -1.28125 -0.28125q-0.8125 0 -1.484375 0.375q-0.65625 0.375 -1.03125 1.046875q-0.375 0.671875 -0.375 1.578125q0 0.90625 0.375 1.59375q0.375 0.671875 1.03125 1.046875q0.671875 0.375 1.484375 0.375q0.6875 0 1.28125 -0.28125q0.59375 -0.28125 0.984375 -0.859375l0.78125 0.53125q-0.46875 0.75 -1.265625 1.140625q-0.78125 0.390625 -1.765625 0.390625z" fill-rule="nonzero"/><path fill="#0000ff" d="m157.69092 154.08943l-0.953125 0l-4.84375 -13.8125l0.953125 0l4.84375 13.8125zm5.0036163 -9.234375q0.9375 0 1.640625 0.359375q0.71875 0.359375 1.125 1.09375q0.40625 0.734375 0.40625 1.84375l0 4.46875l-1.046875 0l0 -4.375q0 -1.203125 -0.609375 -1.828125q-0.609375 -0.625 -1.703125 -0.625q-0.8125 0 -1.421875 0.328125q-0.609375 0.328125 -0.953125 0.953125q-0.328125 0.625 -0.328125 1.5l0 4.046875l-1.03125 0l0 -7.6875l1.0 0l0 2.109375l-0.171875 -0.40625q0.375 -0.828125 1.171875 -1.296875q0.8125 -0.484375 1.921875 -0.484375zm9.173294 7.84375q-1.140625 0 -2.046875 -0.5q-0.890625 -0.515625 -1.40625 -1.40625q-0.515625 -0.890625 -0.515625 -2.03125q0 -1.15625 0.515625 -2.03125q0.515625 -0.875 1.40625 -1.375q0.90625 -0.5 2.046875 -0.5q0.984375 0 1.765625 0.390625q0.796875 0.375 1.265625 1.125l-0.78125 0.53125q-0.390625 -0.578125 -0.984375 -0.859375q-0.59375 -0.28125 -1.28125 -0.28125q-0.8125 0 -1.484375 0.375q-0.65625 0.375 -1.03125 1.046875q-0.375 0.671875 -0.375 1.578125q0 0.90625 0.375 1.59375q0.375 0.671875 1.03125 1.046875q0.671875 0.375 1.484375 0.375q0.6875 0 1.28125 -0.28125q0.59375 -0.28125 0.984375 -0.859375l0.78125 0.53125q-0.46875 0.75 -1.265625 1.140625q-0.78125 0.390625 -1.765625 0.390625zm7.9944916 0q-1.09375 0 -1.96875 -0.5q-0.875 -0.5 -1.375 -1.390625q-0.5 -0.890625 -0.5 -2.046875q0 -1.171875 0.5 -2.046875q0.5 -0.875 1.375 -1.359375q0.875 -0.5 1.96875 -0.5q1.015625 0 1.8125 0.453125q0.796875 0.453125 1.265625 1.328125q0.484375 0.875 0.484375 2.125q0 1.25 -0.46875 2.140625q-0.46875 0.875 -1.265625 1.34375q-0.796875 0.453125 -1.828125 0.453125zm0.078125 -0.921875q0.8125 0 1.46875 -0.375q0.65625 -0.375 1.015625 -1.046875q0.375 -0.6875 0.375 -1.59375q0 -0.90625 -0.375 -1.578125q-0.359375 -0.671875 -1.015625 -1.046875q-0.65625 -0.375 -1.46875 -0.375q-0.8125 0 -1.46875 0.375q-0.640625 0.375 -1.015625 1.046875q-0.375 0.671875 -0.375 1.578125q0 0.90625 0.375 1.59375q0.375 0.671875 1.015625 1.046875q0.65625 0.375 1.46875 0.375zm2.890625 0.84375l0 -2.3125l0.109375 -1.5625l-0.140625 -1.546875l0 -5.453125l1.03125 0l0 10.875l-1.0 0zm6.968231 0.078125q-1.09375 0 -1.96875 -0.5q-0.875 -0.5 -1.375 -1.390625q-0.5 -0.890625 -0.5 -2.046875q0 -1.171875 0.5 -2.046875q0.5 -0.875 1.375 -1.359375q0.875 -0.5 1.96875 -0.5q1.015625 0 1.8125 0.453125q0.796875 0.453125 1.265625 1.328125q0.484375 0.875 0.484375 2.125q0 1.25 -0.46875 2.140625q-0.46875 0.875 -1.265625 1.34375q-0.796875 0.453125 -1.828125 0.453125zm0.078125 -0.921875q0.8125 0 1.46875 -0.375q0.65625 -0.375 1.015625 -1.046875q0.375 -0.6875 0.375 -1.59375q0 -0.90625 -0.375 -1.578125q-0.359375 -0.671875 -1.015625 -1.046875q-0.65625 -0.375 -1.46875 -0.375q-0.8125 0 -1.46875 0.375q-0.640625 0.375 -1.015625 1.046875q-0.375 0.671875 -0.375 1.578125q0 0.90625 0.375 1.59375q0.375 0.671875 1.015625 1.046875q0.65625 0.375 1.46875 0.375zm2.890625 0.84375l0 -2.3125l0.109375 -1.5625l-0.140625 -1.546875l0 -5.453125l1.03125 0l0 10.875l-1.0 0z" fill-rule="nonzero"/><path fill="#000000" fill-opacity="0.0" d="m49.92126 16.128609l403.937 0l0 48.472443l-403.937 0z" fill-rule="evenodd"/><path fill="#595959" d="m66.65563 48.29361q-1.96875 0 -3.4687462 -0.828125q-1.484375 -0.828125 -2.328125 -2.28125q-0.828125 -1.453125 -0.828125 -3.328125q0 -1.875 0.796875 -3.3125q0.8125 -1.4375 2.203125 -2.265625q1.4062462 -0.828125 3.1562462 -0.828125q1.78125 0 3.15625 0.8125q1.390625 0.796875 2.171875 2.25q0.796875 1.453125 0.796875 3.34375q0 0.125 -0.015625 0.265625q0 0.125 0 0.265625l-10.968746 0l0 -1.28125l10.046871 0l-0.671875 0.515625q0 -1.375 -0.59375 -2.4375q-0.578125 -1.078125 -1.59375 -1.671875q-1.0 -0.59375 -2.328125 -0.59375q-1.296875 0 -2.3281212 0.59375q-1.03125 0.59375 -1.609375 1.6875q-0.5625 1.078125 -0.5625 2.46875l0 0.265625q0 1.4375 0.625 2.53125q0.640625 1.09375 1.7812462 1.703125q1.140625 0.609375 2.609375 0.609375q1.140625 0 2.140625 -0.40625q1.0 -0.40625 1.71875 -1.25l0.953125 1.109375q-0.828125 1.0 -2.09375 1.53125q-1.265625 0.53125 -2.765625 0.53125zm6.854706 -0.125l5.328125 -6.90625l-0.015625 0.828125l-5.0625 -6.515625l1.90625 0l4.15625 5.390625l-0.71875 -0.015625l4.15625 -5.375l1.875 0l-5.125 6.59375l0.03125 -0.90625l5.375 6.90625l-1.9375 0l-4.390625 -5.765625l0.671875 0.109375l-4.328125 5.65625l-1.921875 0zm18.722214 0.125q-1.78125 0 -2.75 -0.953125q-0.953125 -0.96875 -0.953125 -2.71875l0 -11.84375l1.71875 0l0 11.75q0 1.09375 0.5625 1.703125q0.5625 0.59375 1.609375 0.59375q1.140625 0 1.875 -0.640625l0.609375 1.21875q-0.515625 0.453125 -1.21875 0.671875q-0.703125 0.21875 -1.453125 0.21875zm-5.953125 -11.3125l0 -1.40625l7.796875 0l0 1.40625l-7.796875 0zm11.712723 11.1875l0 -12.59375l1.640625 0l0 3.421875l-0.171875 -0.59375q0.53125 -1.4375 1.765625 -2.1875q1.25 -0.765625 3.109375 -0.765625l0 1.65625q-0.109375 0 -0.203125 -0.015625q-0.09375 -0.015625 -0.1875 -0.015625q-1.984375 0 -3.125 1.21875q-1.125 1.21875 -1.125 3.4375l0 6.4375l-1.703125 0zm16.386597 0l0 -2.78125l-0.0625 -0.453125l0 -4.65625q0 -1.609375 -0.90625 -2.46875q-0.890625 -0.875 -2.671875 -0.875q-1.21875 0 -2.328125 0.40625q-1.109375 0.40625 -1.875 1.078125l-0.765625 -1.265625q0.953125 -0.8125 2.296875 -1.25q1.34375 -0.453125 2.84375 -0.453125q2.4375 0 3.765625 1.21875q1.34375 1.203125 1.34375 3.671875l0 7.828125l-1.640625 0zm-4.34375 0.125q-1.40625 0 -2.453125 -0.46875q-1.046875 -0.46875 -1.609375 -1.296875q-0.546875 -0.828125 -0.546875 -1.90625q0 -0.984375 0.46875 -1.78125q0.46875 -0.8125 1.53125 -1.296875q1.078125 -0.5 2.875 -0.5l4.34375 0l0 1.265625l-4.296875 0q-1.8125 0 -2.53125 0.65625q-0.703125 0.640625 -0.703125 1.609375q0 1.078125 0.84375 1.734375q0.84375 0.640625 2.34375 0.640625q1.4375 0 2.484375 -0.65625q1.046875 -0.671875 1.53125 -1.921875l0.375 1.1875q-0.46875 1.234375 -1.65625 1.984375q-1.1875 0.75 -3.0 0.75zm15.847458 0q-1.875 0 -3.359375 -0.828125q-1.46875 -0.828125 -2.3125 -2.28125q-0.828125 -1.453125 -0.828125 -3.328125q0 -1.890625 0.828125 -3.328125q0.84375 -1.453125 2.3125 -2.265625q1.484375 -0.8125 3.359375 -0.8125q1.609375 0 2.9062576 0.625q1.296875 0.625 2.03125 1.875l-1.265625 0.859375q-0.65625 -0.953125 -1.6093826 -1.40625q-0.953125 -0.46875 -2.09375 -0.46875q-1.34375 0 -2.421875 0.609375q-1.078125 0.609375 -1.703125 1.71875q-0.625 1.109375 -0.625 2.59375q0 1.484375 0.625 2.59375q0.625 1.109375 1.703125 1.71875q1.078125 0.609375 2.421875 0.609375q1.140625 0 2.09375 -0.453125q0.9531326 -0.453125 1.6093826 -1.390625l1.265625 0.859375q-0.734375 1.21875 -2.03125 1.859375q-1.2968826 0.640625 -2.9062576 0.640625zm12.405968 0q-1.78125 0 -2.75 -0.953125q-0.953125 -0.96875 -0.953125 -2.71875l0 -11.84375l1.71875 0l0 11.75q0 1.09375 0.5625 1.703125q0.5625 0.59375 1.609375 0.59375q1.140625 0 1.875 -0.640625l0.609375 1.21875q-0.515625 0.453125 -1.21875 0.671875q-0.703125 0.21875 -1.453125 0.21875zm-5.953125 -11.3125l0 -1.40625l7.796875 0l0 1.40625l-7.796875 0zm10.177719 12.34375l0 -1.15625l12.0 0l0 1.15625l-12.0 0zm14.3749695 -1.15625l0 -17.8125l1.703125 0l0 17.8125l-1.703125 0zm6.4559784 0l0 -12.59375l1.703125 0l0 12.59375l-1.703125 0zm0.875 -15.390625q-0.53125 0 -0.890625 -0.359375q-0.359375 -0.359375 -0.359375 -0.859375q0 -0.5 0.359375 -0.84375q0.359375 -0.359375 0.890625 -0.359375q0.53125 0 0.890625 0.34375q0.359375 0.328125 0.359375 0.84375q0 0.515625 -0.359375 0.875q-0.34375 0.359375 -0.890625 0.359375zm12.018478 2.671875q1.53125 0 2.6875 0.59375q1.171875 0.578125 1.828125 1.78125q0.65625 1.203125 0.65625 3.03125l0 7.3125l-1.703125 0l0 -7.15625q0 -1.984375 -1.0 -3.0q-0.984375 -1.03125 -2.78125 -1.03125q-1.34375 0 -2.34375 0.546875q-1.0 0.53125 -1.546875 1.5625q-0.53125 1.015625 -0.53125 2.453125l0 6.625l-1.703125 0l0 -12.59375l1.640625 0l0 3.453125l-0.265625 -0.65625q0.59375 -1.359375 1.90625 -2.140625q1.328125 -0.78125 3.15625 -0.78125zm15.145828 12.84375q-1.96875 0 -3.46875 -0.828125q-1.484375 -0.828125 -2.328125 -2.28125q-0.828125 -1.453125 -0.828125 -3.328125q0 -1.875 0.796875 -3.3125q0.8125 -1.4375 2.203125 -2.265625q1.40625 -0.828125 3.15625 -0.828125q1.78125 0 3.15625 0.8125q1.390625 0.796875 2.171875 2.25q0.796875 1.453125 0.796875 3.34375q0 0.125 -0.015625 0.265625q0 0.125 0 0.265625l-10.96875 0l0 -1.28125l10.046875 0l-0.671875 0.515625q0 -1.375 -0.59375 -2.4375q-0.578125 -1.078125 -1.59375 -1.671875q-1.0 -0.59375 -2.328125 -0.59375q-1.296875 0 -2.328125 0.59375q-1.03125 0.59375 -1.609375 1.6875q-0.5625 1.078125 -0.5625 2.46875l0 0.265625q0 1.4375 0.625 2.53125q0.640625 1.09375 1.78125 1.703125q1.140625 0.609375 2.609375 0.609375q1.140625 0 2.140625 -0.40625q1.0 -0.40625 1.71875 -1.25l0.953125 1.109375q-0.828125 1.0 -2.09375 1.53125q-1.265625 0.53125 -2.765625 0.53125zm12.042831 4.53125q-1.328125 -2.1875 -2.0625 -5.046875q-0.71875 -2.875 -0.71875 -6.1875q0 -3.3125 0.71875 -6.203125q0.734375 -2.890625 2.0625 -5.03125l1.625 0q-1.40625 2.46875 -2.078125 5.25q-0.65625 2.765625 -0.65625 5.984375q0 3.21875 0.65625 6.0q0.671875 2.765625 2.078125 5.234375l-1.625 0zm5.208481 0l-1.640625 0q1.453125 -2.46875 2.109375 -5.234375q0.65625 -2.78125 0.65625 -6.0q0 -3.21875 -0.65625 -5.984375q-0.65625 -2.78125 -2.109375 -5.25l1.640625 0q1.359375 2.140625 2.078125 5.03125q0.734375 2.890625 0.734375 6.203125q0 3.3125 -0.734375 6.1875q-0.71875 2.859375 -2.078125 5.046875z" fill-rule="nonzero"/><path fill="#000000" fill-opacity="0.0" d="m59.902885 277.62204l204.50394 0l0 48.472443l-204.50394 0z" fill-rule="evenodd"/><path fill="#595959" d="m76.63726 309.78705q-1.96875 0 -3.46875 -0.828125q-1.484375 -0.828125 -2.328125 -2.28125q-0.828125 -1.453125 -0.828125 -3.328125q0 -1.875 0.796875 -3.3125q0.8125 -1.4375 2.203125 -2.265625q1.40625 -0.828125 3.15625 -0.828125q1.78125 0 3.15625 0.8125q1.390625 0.796875 2.171875 2.25q0.796875 1.453125 0.796875 3.34375q0 0.125 -0.015625 0.265625q0 0.125 0 0.265625l-10.96875 0l0 -1.28125l10.046875 0l-0.671875 0.515625q0 -1.375 -0.59375 -2.4375q-0.578125 -1.078125 -1.59375 -1.671875q-1.0 -0.59375 -2.328125 -0.59375q-1.296875 0 -2.328125 0.59375q-1.03125 0.59375 -1.609375 1.6875q-0.5625 1.078125 -0.5625 2.46875l0 0.265625q0 1.4375 0.625 2.53125q0.640625 1.09375 1.78125 1.703125q1.140625 0.609375 2.609375 0.609375q1.140625 0 2.140625 -0.40625q1.0 -0.40625 1.71875 -1.25l0.953125 1.109375q-0.828125 1.0 -2.09375 1.53125q-1.265625 0.53125 -2.765625 0.53125zm6.854706 -0.125l5.328125 -6.90625l-0.015625 0.828125l-5.0625 -6.515625l1.90625 0l4.15625 5.390625l-0.71875 -0.015625l4.15625 -5.375l1.875 0l-5.125 6.59375l0.03125 -0.90625l5.375 6.90625l-1.9375 0l-4.390625 -5.765625l0.671875 0.109375l-4.328125 5.65625l-1.921875 0zm18.722214 0.125q-1.78125 0 -2.75 -0.953125q-0.953125 -0.96875 -0.953125 -2.71875l0 -11.84375l1.71875 0l0 11.75q0 1.09375 0.5625 1.703125q0.5625 0.59375 1.609375 0.59375q1.140625 0 1.875 -0.640625l0.609375 1.21875q-0.515625 0.453125 -1.21875 0.671875q-0.703125 0.21875 -1.453125 0.21875zm-5.953125 -11.3125l0 -1.40625l7.796875 0l0 1.40625l-7.796875 0zm11.712723 11.1875l0 -12.59375l1.640625 0l0 3.421875l-0.171875 -0.59375q0.53125 -1.4375 1.765625 -2.1875q1.25 -0.765625 3.109375 -0.765625l0 1.65625q-0.109375 0 -0.203125 -0.015625q-0.09375 -0.015625 -0.1875 -0.015625q-1.984375 0 -3.125 1.21875q-1.125 1.21875 -1.125 3.4375l0 6.4375l-1.703125 0zm16.386597 0l0 -2.78125l-0.0625 -0.453125l0 -4.65625q0 -1.609375 -0.90625 -2.46875q-0.890625 -0.875 -2.671875 -0.875q-1.21875 0 -2.328125 0.40625q-1.109375 0.40625 -1.875 1.078125l-0.765625 -1.265625q0.953125 -0.8125 2.296875 -1.25q1.34375 -0.453125 2.84375 -0.453125q2.4375 0 3.765625 1.21875q1.34375 1.203125 1.34375 3.671875l0 7.828125l-1.640625 0zm-4.34375 0.125q-1.40625 0 -2.453125 -0.46875q-1.046875 -0.46875 -1.609375 -1.296875q-0.546875 -0.828125 -0.546875 -1.90625q0 -0.984375 0.46875 -1.78125q0.46875 -0.8125 1.53125 -1.296875q1.078125 -0.5 2.875 -0.5l4.34375 0l0 1.265625l-4.296875 0q-1.8125 0 -2.53125 0.65625q-0.703125 0.640625 -0.703125 1.609375q0 1.078125 0.84375 1.734375q0.84375 0.640625 2.34375 0.640625q1.4375 0 2.484375 -0.65625q1.046875 -0.671875 1.53125 -1.921875l0.375 1.1875q-0.46875 1.234375 -1.65625 1.984375q-1.1875 0.75 -3.0 0.75zm15.8474655 0q-1.875 0 -3.359375 -0.828125q-1.46875 -0.828125 -2.3125 -2.28125q-0.828125 -1.453125 -0.828125 -3.328125q0 -1.890625 0.828125 -3.328125q0.84375 -1.453125 2.3125 -2.265625q1.484375 -0.8125 3.359375 -0.8125q1.609375 0 2.90625 0.625q1.296875 0.625 2.03125 1.875l-1.265625 0.859375q-0.65625 -0.953125 -1.609375 -1.40625q-0.953125 -0.46875 -2.09375 -0.46875q-1.34375 0 -2.421875 0.609375q-1.078125 0.609375 -1.703125 1.71875q-0.625 1.109375 -0.625 2.59375q0 1.484375 0.625 2.59375q0.625 1.109375 1.703125 1.71875q1.078125 0.609375 2.421875 0.609375q1.140625 0 2.09375 -0.453125q0.953125 -0.453125 1.609375 -1.390625l1.265625 0.859375q-0.734375 1.21875 -2.03125 1.859375q-1.296875 0.640625 -2.90625 0.640625zm12.40596 0q-1.78125 0 -2.75 -0.953125q-0.953125 -0.96875 -0.953125 -2.71875l0 -11.84375l1.71875 0l0 11.75q0 1.09375 0.5625 1.703125q0.5625 0.59375 1.609375 0.59375q1.140625 0 1.875 -0.640625l0.609375 1.21875q-0.515625 0.453125 -1.21875 0.671875q-0.703125 0.21875 -1.453125 0.21875zm-5.953125 -11.3125l0 -1.40625l7.796875 0l0 1.40625l-7.796875 0zm16.616104 11.3125q-1.96875 0 -3.46875 -0.828125q-1.484375 -0.828125 -2.328125 -2.28125q-0.828125 -1.453125 -0.828125 -3.328125q0 -1.875 0.796875 -3.3125q0.8125 -1.4375 2.203125 -2.265625q1.40625 -0.828125 3.15625 -0.828125q1.78125 0 3.15625 0.8125q1.390625 0.796875 2.171875 2.25q0.796875 1.453125 0.796875 3.34375q0 0.125 -0.015625 0.265625q0 0.125 0 0.265625l-10.96875 0l0 -1.28125l10.046875 0l-0.671875 0.515625q0 -1.375 -0.59375 -2.4375q-0.578125 -1.078125 -1.59375 -1.671875q-1.0 -0.59375 -2.328125 -0.59375q-1.296875 0 -2.328125 0.59375q-1.03125 0.59375 -1.609375 1.6875q-0.5625 1.078125 -0.5625 2.46875l0 0.265625q0 1.4375 0.625 2.53125q0.640625 1.09375 1.78125 1.703125q1.140625 0.609375 2.609375 0.609375q1.140625 0 2.140625 -0.40625q1.0 -0.40625 1.71875 -1.25l0.953125 1.109375q-0.828125 1.0 -2.09375 1.53125q-1.265625 0.53125 -2.765625 0.53125zm14.152206 0q-1.796875 0 -3.234375 -0.8125q-1.421875 -0.828125 -2.234375 -2.28125q-0.8125 -1.453125 -0.8125 -3.34375q0 -1.921875 0.8125 -3.359375q0.8125 -1.4375 2.234375 -2.234375q1.4375 -0.8125 3.234375 -0.8125q1.65625 0 2.953125 0.75q1.3125 0.734375 2.09375 2.171875q0.78125 1.421875 0.78125 3.484375q0 2.046875 -0.765625 3.484375q-0.765625 1.4375 -2.078125 2.203125q-1.296875 0.75 -2.984375 0.75zm0.125 -1.515625q1.34375 0 2.40625 -0.609375q1.0625 -0.609375 1.671875 -1.71875q0.625 -1.125 0.625 -2.59375q0 -1.484375 -0.625 -2.59375q-0.609375 -1.109375 -1.671875 -1.71875q-1.0625 -0.609375 -2.40625 -0.609375q-1.328125 0 -2.390625 0.609375q-1.046875 0.609375 -1.671875 1.71875q-0.625 1.109375 -0.625 2.59375q0 1.46875 0.625 2.59375q0.625 1.109375 1.671875 1.71875q1.0625 0.609375 2.390625 0.609375zm4.75 1.390625l0 -3.796875l0.171875 -2.546875l-0.25 -2.53125l0 -8.9375l1.703125 0l0 17.8125l-1.625 0z" fill-rule="nonzero"/><path fill="#eeeeee" d="m71.28609 317.63516l370.36218 0l0 44.97638l-370.36218 0z" fill-rule="evenodd"/><path stroke="#595959" stroke-width="1.0" stroke-linejoin="round" stroke-linecap="butt" d="m71.28609 317.63516l370.36218 0l0 44.97638l-370.36218 0z" fill-rule="evenodd"/><path fill="#000000" fill-opacity="0.0" d="m71.28609 321.54068l201.00789 0l0 37.165344l-201.00789 0z" fill-rule="evenodd"/><path fill="#ff0000" d="m86.55171 344.6207l0 -1.703125l-0.03125 -0.28125l0 -2.84375q0 -0.96875 -0.5625 -1.5q-0.546875 -0.53125 -1.625 -0.53125q-0.75 0 -1.421875 0.25q-0.671875 0.25 -1.140625 0.65625l-0.46875 -0.78125q0.578125 -0.484375 1.390625 -0.75q0.828125 -0.28125 1.734375 -0.28125q1.5 0 2.3125 0.75q0.8125 0.734375 0.8125 2.234375l0 4.78125l-1.0 0zm-2.640625 0.078125q-0.875 0 -1.515625 -0.28125q-0.625 -0.296875 -0.96875 -0.796875q-0.328125 -0.515625 -0.328125 -1.171875q0 -0.59375 0.28125 -1.078125q0.28125 -0.5 0.9375 -0.796875q0.65625 -0.3125 1.75 -0.3125l2.65625 0l0 0.78125l-2.625 0q-1.109375 0 -1.546875 0.40625q-0.4375 0.390625 -0.4375 0.96875q0 0.671875 0.515625 1.0625q0.515625 0.390625 1.4375 0.390625q0.875 0 1.515625 -0.390625q0.640625 -0.40625 0.9375 -1.171875l0.234375 0.71875q-0.296875 0.765625 -1.03125 1.21875q-0.71875 0.453125 -1.8125 0.453125zm11.287842 -0.078125l0 -1.703125l-0.03125 -0.28125l0 -2.84375q0 -0.96875 -0.5625 -1.5q-0.546875 -0.53125 -1.625 -0.53125q-0.75 0 -1.421875 0.25q-0.671875 0.25 -1.140625 0.65625l-0.46875 -0.78125q0.578125 -0.484375 1.390625 -0.75q0.828125 -0.28125 1.734375 -0.28125q1.5 0 2.3125 0.75q0.8125 0.734375 0.8125 2.234375l0 4.78125l-1.0 0zm-2.640625 0.078125q-0.875 0 -1.515625 -0.28125q-0.625 -0.296875 -0.96875 -0.796875q-0.328125 -0.515625 -0.328125 -1.171875q0 -0.59375 0.28125 -1.078125q0.28125 -0.5 0.9375 -0.796875q0.65625 -0.3125 1.75 -0.3125l2.65625 0l0 0.78125l-2.625 0q-1.109375 0 -1.546875 0.40625q-0.4375 0.390625 -0.4375 0.96875q0 0.671875 0.515625 1.0625q0.515625 0.390625 1.4375 0.390625q0.875 0 1.515625 -0.390625q0.640625 -0.40625 0.9375 -1.171875l0.234375 0.71875q-0.296875 0.765625 -1.03125 1.21875q-0.71875 0.453125 -1.8125 0.453125zm11.287842 -0.078125l0 -1.703125l-0.03125 -0.28125l0 -2.84375q0 -0.96875 -0.5625 -1.5q-0.546875 -0.53125 -1.625 -0.53125q-0.75 0 -1.421875 0.25q-0.671875 0.25 -1.140625 0.65625l-0.46875 -0.78125q0.578125 -0.484375 1.390625 -0.75q0.828125 -0.28125 1.734375 -0.28125q1.5 0 2.3125 0.75q0.8125 0.734375 0.8125 2.234375l0 4.78125l-1.0 0zm-2.640625 0.078125q-0.875 0 -1.515625 -0.28125q-0.625 -0.296875 -0.96875 -0.796875q-0.328125 -0.515625 -0.328125 -1.171875q0 -0.59375 0.28125 -1.078125q0.28125 -0.5 0.9375 -0.796875q0.65625 -0.3125 1.75 -0.3125l2.65625 0l0 0.78125l-2.625 0q-1.109375 0 -1.546875 0.40625q-0.4375 0.390625 -0.4375 0.96875q0 0.671875 0.515625 1.0625q0.515625 0.390625 1.4375 0.390625q0.875 0 1.515625 -0.390625q0.640625 -0.40625 0.9375 -1.171875l0.234375 0.71875q-0.296875 0.765625 -1.03125 1.21875q-0.71875 0.453125 -1.8125 0.453125zm10.444092 0q-1.015625 0 -1.828125 -0.453125q-0.796875 -0.46875 -1.265625 -1.34375q-0.46875 -0.890625 -0.46875 -2.140625q0 -1.25 0.46875 -2.125q0.484375 -0.875 1.28125 -1.328125q0.8125 -0.453125 1.8125 -0.453125q1.09375 0 1.96875 0.5q0.875 0.484375 1.375 1.359375q0.5 0.875 0.5 2.046875q0 1.15625 -0.5 2.046875q-0.5 0.890625 -1.375 1.390625q-0.875 0.5 -1.96875 0.5zm-3.96875 -0.078125l0 -10.875l1.03125 0l0 5.453125l-0.140625 1.546875l0.109375 1.5625l0 2.3125l-1.0 0zm3.890625 -0.84375q0.828125 0 1.46875 -0.375q0.640625 -0.375 1.015625 -1.046875q0.390625 -0.6875 0.390625 -1.59375q0 -0.90625 -0.390625 -1.578125q-0.375 -0.671875 -1.015625 -1.046875q-0.640625 -0.375 -1.46875 -0.375q-0.8125 0 -1.46875 0.375q-0.65625 0.375 -1.03125 1.046875q-0.359375 0.671875 -0.359375 1.578125q0 0.90625 0.359375 1.59375q0.375 0.671875 1.03125 1.046875q0.65625 0.375 1.46875 0.375z" fill-rule="nonzero"/><path fill="#00ff00" d="m121.58659 344.69882q-1.015625 0 -1.828125 -0.453125q-0.796875 -0.46875 -1.265625 -1.34375q-0.46875 -0.890625 -0.46875 -2.140625q0 -1.25 0.46875 -2.125q0.484375 -0.875 1.28125 -1.328125q0.8125 -0.453125 1.8125 -0.453125q1.09375 0 1.96875 0.5q0.875 0.484375 1.375 1.359375q0.5 0.875 0.5 2.046875q0 1.15625 -0.5 2.046875q-0.5 0.890625 -1.375 1.390625q-0.875 0.5 -1.96875 0.5zm-3.96875 -0.078125l0 -10.875l1.03125 0l0 5.453125l-0.140625 1.546875l0.109375 1.5625l0 2.3125l-1.0 0zm3.890625 -0.84375q0.828125 0 1.46875 -0.375q0.640625 -0.375 1.015625 -1.046875q0.390625 -0.6875 0.390625 -1.59375q0 -0.90625 -0.390625 -1.578125q-0.375 -0.671875 -1.015625 -1.046875q-0.640625 -0.375 -1.46875 -0.375q-0.8125 0 -1.46875 0.375q-0.65625 0.375 -1.03125 1.046875q-0.359375 0.671875 -0.359375 1.578125q0 0.90625 0.359375 1.59375q0.375 0.671875 1.03125 1.046875q0.65625 0.375 1.46875 0.375zm10.015106 0.921875q-1.015625 0 -1.828125 -0.453125q-0.796875 -0.46875 -1.265625 -1.34375q-0.46875 -0.890625 -0.46875 -2.140625q0 -1.25 0.46875 -2.125q0.484375 -0.875 1.28125 -1.328125q0.8125 -0.453125 1.8125 -0.453125q1.09375 0 1.96875 0.5q0.875 0.484375 1.375 1.359375q0.5 0.875 0.5 2.046875q0 1.15625 -0.5 2.046875q-0.5 0.890625 -1.375 1.390625q-0.875 0.5 -1.96875 0.5zm-3.96875 -0.078125l0 -10.875l1.03125 0l0 5.453125l-0.140625 1.546875l0.109375 1.5625l0 2.3125l-1.0 0zm3.890625 -0.84375q0.828125 0 1.46875 -0.375q0.640625 -0.375 1.015625 -1.046875q0.390625 -0.6875 0.390625 -1.59375q0 -0.90625 -0.390625 -1.578125q-0.375 -0.671875 -1.015625 -1.046875q-0.640625 -0.375 -1.46875 -0.375q-0.8125 0 -1.46875 0.375q-0.65625 0.375 -1.03125 1.046875q-0.359375 0.671875 -0.359375 1.578125q0 0.90625 0.359375 1.59375q0.375 0.671875 1.03125 1.046875q0.65625 0.375 1.46875 0.375zm9.233856 0.921875q-1.140625 0 -2.046875 -0.5q-0.890625 -0.515625 -1.40625 -1.40625q-0.515625 -0.890625 -0.515625 -2.03125q0 -1.15625 0.515625 -2.03125q0.515625 -0.875 1.40625 -1.375q0.90625 -0.5 2.046875 -0.5q0.984375 0 1.765625 0.390625q0.796875 0.375 1.265625 1.125l-0.78125 0.53125q-0.390625 -0.578125 -0.984375 -0.859375q-0.59375 -0.28125 -1.28125 -0.28125q-0.8125 0 -1.484375 0.375q-0.65625 0.375 -1.03125 1.046875q-0.375 0.671875 -0.375 1.578125q0 0.90625 0.375 1.59375q0.375 0.671875 1.03125 1.046875q0.671875 0.375 1.484375 0.375q0.6875 0 1.28125 -0.28125q0.59375 -0.28125 0.984375 -0.859375l0.78125 0.53125q-0.46875 0.75 -1.265625 1.140625q-0.78125 0.390625 -1.765625 0.390625zm8.119492 0q-1.140625 0 -2.046875 -0.5q-0.890625 -0.515625 -1.40625 -1.40625q-0.515625 -0.890625 -0.515625 -2.03125q0 -1.15625 0.515625 -2.03125q0.515625 -0.875 1.40625 -1.375q0.90625 -0.5 2.046875 -0.5q0.984375 0 1.765625 0.390625q0.796875 0.375 1.265625 1.125l-0.78125 0.53125q-0.390625 -0.578125 -0.984375 -0.859375q-0.59375 -0.28125 -1.28125 -0.28125q-0.8125 0 -1.484375 0.375q-0.65625 0.375 -1.03125 1.046875q-0.375 0.671875 -0.375 1.578125q0 0.90625 0.375 1.59375q0.375 0.671875 1.03125 1.046875q0.671875 0.375 1.484375 0.375q0.6875 0 1.28125 -0.28125q0.59375 -0.28125 0.984375 -0.859375l0.78125 0.53125q-0.46875 0.75 -1.265625 1.140625q-0.78125 0.390625 -1.765625 0.390625z" fill-rule="nonzero"/><path fill="#0000ff" d="m157.69092 346.08945l-0.953125 0l-4.84375 -13.8125l0.953125 0l4.84375 13.8125zm5.0036163 -9.234375q0.9375 0 1.640625 0.359375q0.71875 0.359375 1.125 1.09375q0.40625 0.734375 0.40625 1.84375l0 4.46875l-1.046875 0l0 -4.375q0 -1.203125 -0.609375 -1.828125q-0.609375 -0.625 -1.703125 -0.625q-0.8125 0 -1.421875 0.328125q-0.609375 0.328125 -0.953125 0.953125q-0.328125 0.625 -0.328125 1.5l0 4.046875l-1.03125 0l0 -7.6875l1.0 0l0 2.109375l-0.171875 -0.40625q0.375 -0.828125 1.171875 -1.296875q0.8125 -0.484375 1.921875 -0.484375z" fill-rule="nonzero"/><path fill="#000000" fill-opacity="0.0" d="m256.4672 170.61154l0 147.02362" fill-rule="evenodd"/><path stroke="#595959" stroke-width="1.0" stroke-linejoin="round" stroke-linecap="butt" d="m256.4672 170.61154l0 141.02362" fill-rule="evenodd"/><path fill="#595959" stroke="#595959" stroke-width="1.0" stroke-linecap="butt" d="m254.81546 311.63516l1.6517334 4.5381165l1.6517334 -4.5381165z" fill-rule="evenodd"/><path fill="#000000" fill-opacity="0.0" d="m515.9029 85.62205l204.5039 0l0 48.472435l-204.5039 0z" fill-rule="evenodd"/><path fill="#595959" d="m530.6685 117.78705q-1.5625 0 -2.953125 -0.4375q-1.390625 -0.453125 -2.1875 -1.125l0.765625 -1.34375q0.765625 0.578125 1.96875 1.0q1.203125 0.40625 2.515625 0.40625q1.8125 0 2.59375 -0.5625q0.796875 -0.5625 0.796875 -1.5q0 -0.6875 -0.453125 -1.078125q-0.4375 -0.40625 -1.15625 -0.609375q-0.71875 -0.203125 -1.609375 -0.34375q-0.890625 -0.140625 -1.765625 -0.328125q-0.875 -0.203125 -1.59375 -0.578125q-0.71875 -0.375 -1.171875 -1.015625q-0.4375 -0.65625 -0.4375 -1.734375q0 -1.03125 0.578125 -1.84375q0.578125 -0.8125 1.6875 -1.28125q1.125 -0.46875 2.734375 -0.46875q1.21875 0 2.4375 0.328125q1.234375 0.3125 2.015625 0.84375l-0.734375 1.375q-0.84375 -0.578125 -1.8125 -0.828125q-0.953125 -0.25 -1.90625 -0.25q-1.703125 0 -2.515625 0.59375q-0.796875 0.578125 -0.796875 1.484375q0 0.71875 0.4375 1.140625q0.4375 0.40625 1.171875 0.640625q0.734375 0.21875 1.609375 0.359375q0.875 0.140625 1.75 0.34375q0.875 0.203125 1.609375 0.5625q0.734375 0.34375 1.171875 0.984375q0.453125 0.625 0.453125 1.65625q0 1.109375 -0.609375 1.921875q-0.609375 0.796875 -1.78125 1.25q-1.15625 0.4375 -2.8125 0.4375zm12.305725 0q-1.78125 0 -2.75 -0.953125q-0.953125 -0.96875 -0.953125 -2.71875l0 -11.84375l1.71875 0l0 11.75q0 1.09375 0.5625 1.703125q0.5625 0.59375 1.609375 0.59375q1.140625 0 1.875 -0.640625l0.609375 1.21875q-0.515625 0.453125 -1.21875 0.671875q-0.703125 0.21875 -1.453125 0.21875zm-5.953125 -11.3125l0 -1.40625l7.796875 0l0 1.40625l-7.796875 0zm16.397339 11.3125q-1.828125 0 -3.28125 -0.828125q-1.453125 -0.828125 -2.296875 -2.28125q-0.828125 -1.453125 -0.828125 -3.328125q0 -1.890625 0.828125 -3.328125q0.84375 -1.453125 2.28125 -2.265625q1.4375 -0.8125 3.296875 -0.8125q1.875 0 3.3125 0.8125q1.453125 0.8125 2.28125 2.265625q0.828125 1.4375 0.828125 3.328125q0 1.875 -0.828125 3.328125q-0.828125 1.453125 -2.296875 2.28125q-1.453125 0.828125 -3.296875 0.828125zm0 -1.515625q1.359375 0 2.40625 -0.609375q1.0625 -0.609375 1.671875 -1.71875q0.625 -1.125 0.625 -2.59375q0 -1.484375 -0.625 -2.59375q-0.609375 -1.109375 -1.671875 -1.71875q-1.046875 -0.609375 -2.390625 -0.609375q-1.34375 0 -2.40625 0.609375q-1.046875 0.609375 -1.671875 1.71875q-0.625 1.109375 -0.625 2.59375q0 1.46875 0.625 2.59375q0.625 1.109375 1.671875 1.71875q1.0625 0.609375 2.390625 0.609375zm15.141724 1.515625q-1.875 0 -3.359375 -0.828125q-1.46875 -0.828125 -2.3125 -2.28125q-0.828125 -1.453125 -0.828125 -3.328125q0 -1.890625 0.828125 -3.328125q0.84375 -1.453125 2.3125 -2.265625q1.484375 -0.8125 3.359375 -0.8125q1.609375 0 2.90625 0.625q1.296875 0.625 2.03125 1.875l-1.265625 0.859375q-0.65625 -0.953125 -1.609375 -1.40625q-0.953125 -0.46875 -2.09375 -0.46875q-1.34375 0 -2.421875 0.609375q-1.078125 0.609375 -1.703125 1.71875q-0.625 1.109375 -0.625 2.59375q0 1.484375 0.625 2.59375q0.625 1.109375 1.703125 1.71875q1.078125 0.609375 2.421875 0.609375q1.140625 0 2.09375 -0.453125q0.953125 -0.453125 1.609375 -1.390625l1.265625 0.859375q-0.734375 1.21875 -2.03125 1.859375q-1.296875 0.640625 -2.90625 0.640625zm9.429321 -3.390625l0.046875 -2.1875l7.84375 -7.140625l2.09375 0l-5.546875 5.296875l-0.953125 0.8125l-3.484375 3.21875zm-1.34375 3.265625l0 -17.8125l1.703125 0l0 17.8125l-1.703125 0zm9.765625 0l-5.25 -6.546875l1.09375 -1.328125l6.25 7.875l-2.09375 0z" fill-rule="nonzero"/><path fill="#eeeeee" d="m527.2861 125.63517l370.36224 0l0 44.97637l-370.36224 0z" fill-rule="evenodd"/><path stroke="#595959" stroke-width="1.0" stroke-linejoin="round" stroke-linecap="butt" d="m527.2861 125.63517l370.36224 0l0 44.97637l-370.36224 0z" fill-rule="evenodd"/><path fill="#000000" fill-opacity="0.0" d="m527.2861 129.54068l201.00787 0l0 37.16536l-201.00787 0z" fill-rule="evenodd"/><path fill="#ff0000" d="m542.5517 152.62068l0 -1.703125l-0.03125 -0.28125l0 -2.84375q0 -0.96875 -0.5625 -1.5q-0.546875 -0.53125 -1.625 -0.53125q-0.75 0 -1.421875 0.25q-0.671875 0.25 -1.140625 0.65625l-0.46875 -0.78125q0.578125 -0.484375 1.390625 -0.75q0.828125 -0.28125 1.734375 -0.28125q1.5 0 2.3125 0.75q0.8125 0.734375 0.8125 2.234375l0 4.78125l-1.0 0zm-2.640625 0.078125q-0.875 0 -1.515625 -0.28125q-0.625 -0.296875 -0.96875 -0.796875q-0.328125 -0.515625 -0.328125 -1.171875q0 -0.59375 0.28125 -1.078125q0.28125 -0.5 0.9375 -0.796875q0.65625 -0.3125 1.75 -0.3125l2.65625 0l0 0.78125l-2.625 0q-1.109375 0 -1.546875 0.40625q-0.4375 0.390625 -0.4375 0.96875q0 0.671875 0.515625 1.0625q0.515625 0.390625 1.4375 0.390625q0.875 0 1.515625 -0.390625q0.640625 -0.40625 0.9375 -1.171875l0.234375 0.71875q-0.296875 0.765625 -1.03125 1.21875q-0.71875 0.453125 -1.8125 0.453125zm11.287842 -0.078125l0 -1.703125l-0.03125 -0.28125l0 -2.84375q0 -0.96875 -0.5625 -1.5q-0.546875 -0.53125 -1.625 -0.53125q-0.75 0 -1.421875 0.25q-0.671875 0.25 -1.140625 0.65625l-0.46875 -0.78125q0.578125 -0.484375 1.390625 -0.75q0.828125 -0.28125 1.734375 -0.28125q1.5 0 2.3125 0.75q0.8125 0.734375 0.8125 2.234375l0 4.78125l-1.0 0zm-2.640625 0.078125q-0.875 0 -1.515625 -0.28125q-0.625 -0.296875 -0.96875 -0.796875q-0.328125 -0.515625 -0.328125 -1.171875q0 -0.59375 0.28125 -1.078125q0.28125 -0.5 0.9375 -0.796875q0.65625 -0.3125 1.75 -0.3125l2.65625 0l0 0.78125l-2.625 0q-1.109375 0 -1.546875 0.40625q-0.4375 0.390625 -0.4375 0.96875q0 0.671875 0.515625 1.0625q0.515625 0.390625 1.4375 0.390625q0.875 0 1.515625 -0.390625q0.640625 -0.40625 0.9375 -1.171875l0.234375 0.71875q-0.296875 0.765625 -1.03125 1.21875q-0.71875 0.453125 -1.8125 0.453125zm11.287842 -0.078125l0 -1.703125l-0.03125 -0.28125l0 -2.84375q0 -0.96875 -0.5625 -1.5q-0.546875 -0.53125 -1.625 -0.53125q-0.75 0 -1.421875 0.25q-0.671875 0.25 -1.140625 0.65625l-0.46875 -0.78125q0.578125 -0.484375 1.390625 -0.75q0.828125 -0.28125 1.734375 -0.28125q1.5 0 2.3125 0.75q0.8125 0.734375 0.8125 2.234375l0 4.78125l-1.0 0zm-2.640625 0.078125q-0.875 0 -1.515625 -0.28125q-0.625 -0.296875 -0.96875 -0.796875q-0.328125 -0.515625 -0.328125 -1.171875q0 -0.59375 0.28125 -1.078125q0.28125 -0.5 0.9375 -0.796875q0.65625 -0.3125 1.75 -0.3125l2.65625 0l0 0.78125l-2.625 0q-1.109375 0 -1.546875 0.40625q-0.4375 0.390625 -0.4375 0.96875q0 0.671875 0.515625 1.0625q0.515625 0.390625 1.4375 0.390625q0.875 0 1.515625 -0.390625q0.640625 -0.40625 0.9375 -1.171875l0.234375 0.71875q-0.296875 0.765625 -1.03125 1.21875q-0.71875 0.453125 -1.8125 0.453125zm10.444092 0q-1.015625 0 -1.828125 -0.453125q-0.796875 -0.46875 -1.265625 -1.34375q-0.46875 -0.890625 -0.46875 -2.140625q0 -1.25 0.46875 -2.125q0.484375 -0.875 1.28125 -1.328125q0.8125 -0.453125 1.8125 -0.453125q1.09375 0 1.96875 0.5q0.875 0.484375 1.375 1.359375q0.5 0.875 0.5 2.046875q0 1.15625 -0.5 2.046875q-0.5 0.890625 -1.375 1.390625q-0.875 0.5 -1.96875 0.5zm-3.96875 -0.078125l0 -10.875l1.03125 0l0 5.453125l-0.140625 1.546875l0.109375 1.5625l0 2.3125l-1.0 0zm3.890625 -0.84375q0.828125 0 1.46875 -0.375q0.640625 -0.375 1.015625 -1.046875q0.390625 -0.6875 0.390625 -1.59375q0 -0.90625 -0.390625 -1.578125q-0.375 -0.671875 -1.015625 -1.046875q-0.640625 -0.375 -1.46875 -0.375q-0.8125 0 -1.46875 0.375q-0.65625 0.375 -1.03125 1.046875q-0.359375 0.671875 -0.359375 1.578125q0 0.90625 0.359375 1.59375q0.375 0.671875 1.03125 1.046875q0.65625 0.375 1.46875 0.375z" fill-rule="nonzero"/><path fill="#00ff00" d="m577.5866 152.6988q-1.015625 0 -1.828125 -0.453125q-0.796875 -0.46875 -1.265625 -1.34375q-0.46875 -0.890625 -0.46875 -2.140625q0 -1.25 0.46875 -2.125q0.484375 -0.875 1.28125 -1.328125q0.8125 -0.453125 1.8125 -0.453125q1.09375 0 1.96875 0.5q0.875 0.484375 1.375 1.359375q0.5 0.875 0.5 2.046875q0 1.15625 -0.5 2.046875q-0.5 0.890625 -1.375 1.390625q-0.875 0.5 -1.96875 0.5zm-3.96875 -0.078125l0 -10.875l1.03125 0l0 5.453125l-0.140625 1.546875l0.109375 1.5625l0 2.3125l-1.0 0zm3.890625 -0.84375q0.828125 0 1.46875 -0.375q0.640625 -0.375 1.015625 -1.046875q0.390625 -0.6875 0.390625 -1.59375q0 -0.90625 -0.390625 -1.578125q-0.375 -0.671875 -1.015625 -1.046875q-0.640625 -0.375 -1.46875 -0.375q-0.8125 0 -1.46875 0.375q-0.65625 0.375 -1.03125 1.046875q-0.359375 0.671875 -0.359375 1.578125q0 0.90625 0.359375 1.59375q0.375 0.671875 1.03125 1.046875q0.65625 0.375 1.46875 0.375zm10.015076 0.921875q-1.015625 0 -1.828125 -0.453125q-0.796875 -0.46875 -1.265625 -1.34375q-0.46875 -0.890625 -0.46875 -2.140625q0 -1.25 0.46875 -2.125q0.484375 -0.875 1.28125 -1.328125q0.8125 -0.453125 1.8125 -0.453125q1.09375 0 1.96875 0.5q0.875 0.484375 1.375 1.359375q0.5 0.875 0.5 2.046875q0 1.15625 -0.5 2.046875q-0.5 0.890625 -1.375 1.390625q-0.875 0.5 -1.96875 0.5zm-3.96875 -0.078125l0 -10.875l1.03125 0l0 5.453125l-0.140625 1.546875l0.109375 1.5625l0 2.3125l-1.0 0zm3.890625 -0.84375q0.828125 0 1.46875 -0.375q0.640625 -0.375 1.015625 -1.046875q0.390625 -0.6875 0.390625 -1.59375q0 -0.90625 -0.390625 -1.578125q-0.375 -0.671875 -1.015625 -1.046875q-0.640625 -0.375 -1.46875 -0.375q-0.8125 0 -1.46875 0.375q-0.65625 0.375 -1.03125 1.046875q-0.359375 0.671875 -0.359375 1.578125q0 0.90625 0.359375 1.59375q0.375 0.671875 1.03125 1.046875q0.65625 0.375 1.46875 0.375zm9.233887 0.921875q-1.140625 0 -2.046875 -0.5q-0.890625 -0.515625 -1.40625 -1.40625q-0.515625 -0.890625 -0.515625 -2.03125q0 -1.15625 0.515625 -2.03125q0.515625 -0.875 1.40625 -1.375q0.90625 -0.5 2.046875 -0.5q0.984375 0 1.765625 0.390625q0.796875 0.375 1.265625 1.125l-0.78125 0.53125q-0.390625 -0.578125 -0.984375 -0.859375q-0.59375 -0.28125 -1.28125 -0.28125q-0.8125 0 -1.484375 0.375q-0.65625 0.375 -1.03125 1.046875q-0.375 0.671875 -0.375 1.578125q0 0.90625 0.375 1.59375q0.375 0.671875 1.03125 1.046875q0.671875 0.375 1.484375 0.375q0.6875 0 1.28125 -0.28125q0.59375 -0.28125 0.984375 -0.859375l0.78125 0.53125q-0.46875 0.75 -1.265625 1.140625q-0.78125 0.390625 -1.765625 0.390625zm8.119507 0q-1.140625 0 -2.046875 -0.5q-0.890625 -0.515625 -1.40625 -1.40625q-0.515625 -0.890625 -0.515625 -2.03125q0 -1.15625 0.515625 -2.03125q0.515625 -0.875 1.40625 -1.375q0.90625 -0.5 2.046875 -0.5q0.984375 0 1.765625 0.390625q0.796875 0.375 1.265625 1.125l-0.78125 0.53125q-0.390625 -0.578125 -0.984375 -0.859375q-0.59375 -0.28125 -1.28125 -0.28125q-0.8125 0 -1.484375 0.375q-0.65625 0.375 -1.03125 1.046875q-0.375 0.671875 -0.375 1.578125q0 0.90625 0.375 1.59375q0.375 0.671875 1.03125 1.046875q0.671875 0.375 1.484375 0.375q0.6875 0 1.28125 -0.28125q0.59375 -0.28125 0.984375 -0.859375l0.78125 0.53125q-0.46875 0.75 -1.265625 1.140625q-0.78125 0.390625 -1.765625 0.390625z" fill-rule="nonzero"/><path fill="#0000ff" d="m613.6909 154.08943l-0.953125 0l-4.84375 -13.8125l0.953125 0l4.84375 13.8125zm5.003601 -9.234375q0.9375 0 1.640625 0.359375q0.71875 0.359375 1.125 1.09375q0.40625 0.734375 0.40625 1.84375l0 4.46875l-1.046875 0l0 -4.375q0 -1.203125 -0.609375 -1.828125q-0.609375 -0.625 -1.703125 -0.625q-0.8125 0 -1.421875 0.328125q-0.609375 0.328125 -0.953125 0.953125q-0.328125 0.625 -0.328125 1.5l0 4.046875l-1.03125 0l0 -7.6875l1.0 0l0 2.109375l-0.171875 -0.40625q0.375 -0.828125 1.171875 -1.296875q0.8125 -0.484375 1.921875 -0.484375zm9.17334 7.84375q-1.140625 0 -2.046875 -0.5q-0.890625 -0.515625 -1.40625 -1.40625q-0.515625 -0.890625 -0.515625 -2.03125q0 -1.15625 0.515625 -2.03125q0.515625 -0.875 1.40625 -1.375q0.90625 -0.5 2.046875 -0.5q0.984375 0 1.765625 0.390625q0.796875 0.375 1.265625 1.125l-0.78125 0.53125q-0.390625 -0.578125 -0.984375 -0.859375q-0.59375 -0.28125 -1.28125 -0.28125q-0.8125 0 -1.484375 0.375q-0.65625 0.375 -1.03125 1.046875q-0.375 0.671875 -0.375 1.578125q0 0.90625 0.375 1.59375q0.375 0.671875 1.03125 1.046875q0.671875 0.375 1.484375 0.375q0.6875 0 1.28125 -0.28125q0.59375 -0.28125 0.984375 -0.859375l0.78125 0.53125q-0.46875 0.75 -1.265625 1.140625q-0.78125 0.390625 -1.765625 0.390625zm7.994446 0q-1.09375 0 -1.96875 -0.5q-0.875 -0.5 -1.375 -1.390625q-0.5 -0.890625 -0.5 -2.046875q0 -1.171875 0.5 -2.046875q0.5 -0.875 1.375 -1.359375q0.875 -0.5 1.96875 -0.5q1.015625 0 1.8125 0.453125q0.796875 0.453125 1.265625 1.328125q0.484375 0.875 0.484375 2.125q0 1.25 -0.46875 2.140625q-0.46875 0.875 -1.265625 1.34375q-0.796875 0.453125 -1.828125 0.453125zm0.078125 -0.921875q0.8125 0 1.46875 -0.375q0.65625 -0.375 1.015625 -1.046875q0.375 -0.6875 0.375 -1.59375q0 -0.90625 -0.375 -1.578125q-0.359375 -0.671875 -1.015625 -1.046875q-0.65625 -0.375 -1.46875 -0.375q-0.8125 0 -1.46875 0.375q-0.640625 0.375 -1.015625 1.046875q-0.375 0.671875 -0.375 1.578125q0 0.90625 0.375 1.59375q0.375 0.671875 1.015625 1.046875q0.65625 0.375 1.46875 0.375zm2.890625 0.84375l0 -2.3125l0.109375 -1.5625l-0.140625 -1.546875l0 -5.453125l1.03125 0l0 10.875l-1.0 0zm6.9682617 0.078125q-1.09375 0 -1.96875 -0.5q-0.875 -0.5 -1.375 -1.390625q-0.5 -0.890625 -0.5 -2.046875q0 -1.171875 0.5 -2.046875q0.5 -0.875 1.375 -1.359375q0.875 -0.5 1.96875 -0.5q1.015625 0 1.8125 0.453125q0.796875 0.453125 1.265625 1.328125q0.484375 0.875 0.484375 2.125q0 1.25 -0.46875 2.140625q-0.46875 0.875 -1.265625 1.34375q-0.796875 0.453125 -1.828125 0.453125zm0.078125 -0.921875q0.8125 0 1.46875 -0.375q0.65625 -0.375 1.015625 -1.046875q0.375 -0.6875 0.375 -1.59375q0 -0.90625 -0.375 -1.578125q-0.359375 -0.671875 -1.015625 -1.046875q-0.65625 -0.375 -1.46875 -0.375q-0.8125 0 -1.46875 0.375q-0.640625 0.375 -1.015625 1.046875q-0.375 0.671875 -0.375 1.578125q0 0.90625 0.375 1.59375q0.375 0.671875 1.015625 1.046875q0.65625 0.375 1.46875 0.375zm2.890625 0.84375l0 -2.3125l0.109375 -1.5625l-0.140625 -1.546875l0 -5.453125l1.03125 0l0 10.875l-1.0 0z" fill-rule="nonzero"/><path fill="#000000" fill-opacity="0.0" d="m505.92126 16.128609l403.937 0l0 48.472443l-403.937 0z" fill-rule="evenodd"/><path fill="#595959" d="m522.53064 48.29361q-1.875 0 -3.359375 -0.828125q-1.46875 -0.828125 -2.3125 -2.28125q-0.828125 -1.453125 -0.828125 -3.328125q0 -1.890625 0.828125 -3.328125q0.84375 -1.453125 2.3125 -2.265625q1.484375 -0.8125 3.359375 -0.8125q1.609375 0 2.90625 0.625q1.296875 0.625 2.03125 1.875l-1.265625 0.859375q-0.65625 -0.953125 -1.609375 -1.40625q-0.953125 -0.46875 -2.09375 -0.46875q-1.34375 0 -2.421875 0.609375q-1.078125 0.609375 -1.703125 1.71875q-0.625 1.109375 -0.625 2.59375q0 1.484375 0.625 2.59375q0.625 1.109375 1.703125 1.71875q1.078125 0.609375 2.421875 0.609375q1.140625 0 2.09375 -0.453125q0.953125 -0.453125 1.609375 -1.390625l1.265625 0.859375q-0.734375 1.21875 -2.03125 1.859375q-1.296875 0.640625 -2.90625 0.640625zm8.085571 -0.125l0 -17.8125l1.703125 0l0 17.8125l-1.703125 0zm11.815369 0.125q-1.96875 0 -3.46875 -0.828125q-1.484375 -0.828125 -2.328125 -2.28125q-0.828125 -1.453125 -0.828125 -3.328125q0 -1.875 0.796875 -3.3125q0.8125 -1.4375 2.203125 -2.265625q1.40625 -0.828125 3.15625 -0.828125q1.78125 0 3.15625 0.8125q1.390625 0.796875 2.171875 2.25q0.796875 1.453125 0.796875 3.34375q0 0.125 -0.015625 0.265625q0 0.125 0 0.265625l-10.96875 0l0 -1.28125l10.046875 0l-0.671875 0.515625q0 -1.375 -0.59375 -2.4375q-0.578125 -1.078125 -1.59375 -1.671875q-1.0 -0.59375 -2.328125 -0.59375q-1.296875 0 -2.328125 0.59375q-1.03125 0.59375 -1.609375 1.6875q-0.5625 1.078125 -0.5625 2.46875l0 0.265625q0 1.4375 0.625 2.53125q0.640625 1.09375 1.78125 1.703125q1.140625 0.609375 2.609375 0.609375q1.140625 0 2.140625 -0.40625q1.0 -0.40625 1.71875 -1.25l0.953125 1.109375q-0.828125 1.0 -2.09375 1.53125q-1.265625 0.53125 -2.765625 0.53125zm16.667175 -0.125l0 -2.78125l-0.0625 -0.453125l0 -4.65625q0 -1.609375 -0.90625 -2.46875q-0.890625 -0.875 -2.671875 -0.875q-1.21875 0 -2.328125 0.40625q-1.109375 0.40625 -1.875 1.078125l-0.765625 -1.265625q0.953125 -0.8125 2.296875 -1.25q1.34375 -0.453125 2.84375 -0.453125q2.4375 0 3.765625 1.21875q1.34375 1.203125 1.34375 3.671875l0 7.828125l-1.640625 0zm-4.34375 0.125q-1.40625 0 -2.453125 -0.46875q-1.046875 -0.46875 -1.609375 -1.296875q-0.546875 -0.828125 -0.546875 -1.90625q0 -0.984375 0.46875 -1.78125q0.46875 -0.8125 1.53125 -1.296875q1.078125 -0.5 2.875 -0.5l4.34375 0l0 1.265625l-4.296875 0q-1.8125 0 -2.53125 0.65625q-0.703125 0.640625 -0.703125 1.609375q0 1.078125 0.84375 1.734375q0.84375 0.640625 2.34375 0.640625q1.4375 0 2.484375 -0.65625q1.046875 -0.671875 1.53125 -1.921875l0.375 1.1875q-0.46875 1.234375 -1.65625 1.984375q-1.1875 0.75 -3.0 0.75zm17.050598 -12.84375q1.53125 0 2.6875 0.59375q1.171875 0.578125 1.828125 1.78125q0.65625 1.203125 0.65625 3.03125l0 7.3125l-1.703125 0l0 -7.15625q0 -1.984375 -1.0 -3.0q-0.984375 -1.03125 -2.78125 -1.03125q-1.34375 0 -2.34375 0.546875q-1.0 0.53125 -1.546875 1.5625q-0.53125 1.015625 -0.53125 2.453125l0 6.625l-1.703125 0l0 -12.59375l1.640625 0l0 3.453125l-0.265625 -0.65625q0.59375 -1.359375 1.90625 -2.140625q1.328125 -0.78125 3.15625 -0.78125zm7.411438 13.875l0 -1.15625l12.0 0l0 1.15625l-12.0 0zm18.906128 -1.03125q-1.609375 0 -2.8125 -0.59375q-1.1875 -0.609375 -1.859375 -1.8125q-0.65625 -1.203125 -0.65625 -3.0l0 -7.3125l1.703125 0l0 7.125q0 2.015625 1.0 3.03125q1.0 1.015625 2.796875 1.015625q1.328125 0 2.296875 -0.53125q0.96875 -0.546875 1.484375 -1.578125q0.515625 -1.03125 0.515625 -2.46875l0 -6.59375l1.703125 0l0 12.59375l-1.625 0l0 -3.453125l0.265625 0.625q-0.609375 1.390625 -1.875 2.171875q-1.25 0.78125 -2.9375 0.78125zm17.424805 0q-1.625 0 -2.953125 -0.75q-1.3125 -0.765625 -2.09375 -2.1875q-0.78125 -1.4375 -0.78125 -3.5q0 -2.0625 0.765625 -3.484375q0.765625 -1.4375 2.078125 -2.171875q1.328125 -0.75 2.984375 -0.75q1.8125 0 3.234375 0.8125q1.421875 0.796875 2.234375 2.25q0.828125 1.453125 0.828125 3.34375q0 1.921875 -0.828125 3.359375q-0.8125 1.4375 -2.234375 2.265625q-1.421875 0.8125 -3.234375 0.8125zm-6.5 4.53125l0 -17.25l1.640625 0l0 3.78125l-0.171875 2.53125l0.234375 2.53125l0 8.40625l-1.703125 0zm6.390625 -6.046875q1.34375 0 2.390625 -0.609375q1.0625 -0.609375 1.6875 -1.71875q0.625 -1.125 0.625 -2.59375q0 -1.46875 -0.625 -2.5625q-0.625 -1.109375 -1.6875 -1.734375q-1.046875 -0.625 -2.390625 -0.625q-1.34375 0 -2.421875 0.625q-1.0625 0.625 -1.671875 1.734375q-0.609375 1.09375 -0.609375 2.5625q0 1.46875 0.609375 2.59375q0.609375 1.109375 1.671875 1.71875q1.078125 0.609375 2.421875 0.609375zm12.787598 6.046875q-1.328125 -2.1875 -2.0625 -5.046875q-0.71875 -2.875 -0.71875 -6.1875q0 -3.3125 0.71875 -6.203125q0.734375 -2.890625 2.0625 -5.03125l1.625 0q-1.40625 2.46875 -2.078125 5.25q-0.65625 2.765625 -0.65625 5.984375q0 3.21875 0.65625 6.0q0.671875 2.765625 2.078125 5.234375l-1.625 0zm5.208496 0l-1.640625 0q1.453125 -2.46875 2.109375 -5.234375q0.65625 -2.78125 0.65625 -6.0q0 -3.21875 -0.65625 -5.984375q-0.65625 -2.78125 -2.109375 -5.25l1.640625 0q1.359375 2.140625 2.078125 5.03125q0.734375 2.890625 0.734375 6.203125q0 3.3125 -0.734375 6.1875q-0.71875 2.859375 -2.078125 5.046875z" fill-rule="nonzero"/><path fill="#000000" fill-opacity="0.0" d="m515.9029 277.62204l204.5039 0l0 48.472443l-204.5039 0z" fill-rule="evenodd"/><path fill="#595959" d="m527.2779 309.66205l0 -12.59375l1.640625 0l0 3.421875l-0.171875 -0.59375q0.53125 -1.4375 1.765625 -2.1875q1.25 -0.765625 3.109375 -0.765625l0 1.65625q-0.109375 0 -0.203125 -0.015625q-0.09375 -0.015625 -0.1875 -0.015625q-1.984375 0 -3.125 1.21875q-1.125 1.21875 -1.125 3.4375l0 6.4375l-1.703125 0zm14.671326 0.125q-1.96875 0 -3.46875 -0.828125q-1.484375 -0.828125 -2.328125 -2.28125q-0.828125 -1.453125 -0.828125 -3.328125q0 -1.875 0.796875 -3.3125q0.8125 -1.4375 2.203125 -2.265625q1.40625 -0.828125 3.15625 -0.828125q1.78125 0 3.15625 0.8125q1.390625 0.796875 2.171875 2.25q0.796875 1.453125 0.796875 3.34375q0 0.125 -0.015625 0.265625q0 0.125 0 0.265625l-10.96875 0l0 -1.28125l10.046875 0l-0.671875 0.515625q0 -1.375 -0.59375 -2.4375q-0.578125 -1.078125 -1.59375 -1.671875q-1.0 -0.59375 -2.328125 -0.59375q-1.296875 0 -2.328125 0.59375q-1.03125 0.59375 -1.609375 1.6875q-0.5625 1.078125 -0.5625 2.46875l0 0.265625q0 1.4375 0.625 2.53125q0.640625 1.09375 1.78125 1.703125q1.140625 0.609375 2.609375 0.609375q1.140625 0 2.140625 -0.40625q1.0 -0.40625 1.71875 -1.25l0.953125 1.109375q-0.828125 1.0 -2.09375 1.53125q-1.265625 0.53125 -2.765625 0.53125zm24.886597 -12.84375q1.53125 0 2.671875 0.59375q1.140625 0.578125 1.765625 1.78125q0.640625 1.203125 0.640625 3.03125l0 7.3125l-1.703125 0l0 -7.15625q0 -1.984375 -0.953125 -3.0q-0.9375 -1.03125 -2.671875 -1.03125q-1.296875 0 -2.25 0.546875q-0.9375 0.53125 -1.453125 1.5625q-0.515625 1.015625 -0.515625 2.453125l0 6.625l-1.703125 0l0 -7.15625q0 -1.984375 -0.96875 -3.0q-0.953125 -1.03125 -2.6875 -1.03125q-1.265625 0 -2.234375 0.546875q-0.953125 0.53125 -1.46875 1.5625q-0.515625 1.015625 -0.515625 2.453125l0 6.625l-1.703125 0l0 -12.59375l1.640625 0l0 3.40625l-0.265625 -0.609375q0.5625 -1.359375 1.84375 -2.140625q1.296875 -0.78125 3.046875 -0.78125q1.84375 0 3.140625 0.921875q1.296875 0.921875 1.6875 2.765625l-0.671875 -0.25q0.546875 -1.546875 1.953125 -2.484375q1.40625 -0.953125 3.375 -0.953125zm17.604553 12.71875l0 -2.78125l-0.0625 -0.453125l0 -4.65625q0 -1.609375 -0.90625 -2.46875q-0.890625 -0.875 -2.671875 -0.875q-1.21875 0 -2.328125 0.40625q-1.109375 0.40625 -1.875 1.078125l-0.765625 -1.265625q0.953125 -0.8125 2.296875 -1.25q1.34375 -0.453125 2.84375 -0.453125q2.4375 0 3.765625 1.21875q1.34375 1.203125 1.34375 3.671875l0 7.828125l-1.640625 0zm-4.34375 0.125q-1.40625 0 -2.453125 -0.46875q-1.046875 -0.46875 -1.609375 -1.296875q-0.546875 -0.828125 -0.546875 -1.90625q0 -0.984375 0.46875 -1.78125q0.46875 -0.8125 1.53125 -1.296875q1.078125 -0.5 2.875 -0.5l4.34375 0l0 1.265625l-4.296875 0q-1.8125 0 -2.53125 0.65625q-0.703125 0.640625 -0.703125 1.609375q0 1.078125 0.84375 1.734375q0.84375 0.640625 2.34375 0.640625q1.4375 0 2.484375 -0.65625q1.046875 -0.671875 1.53125 -1.921875l0.375 1.1875q-0.46875 1.234375 -1.65625 1.984375q-1.1875 0.75 -3.0 0.75zm10.613098 -0.125l0 -12.59375l1.703125 0l0 12.59375l-1.703125 0zm0.875 -15.390625q-0.53125 0 -0.890625 -0.359375q-0.359375 -0.359375 -0.359375 -0.859375q0 -0.5 0.359375 -0.84375q0.359375 -0.359375 0.890625 -0.359375q0.53125 0 0.890625 0.34375q0.359375 0.328125 0.359375 0.84375q0 0.515625 -0.359375 0.875q-0.34375 0.359375 -0.890625 0.359375zm12.018494 2.671875q1.53125 0 2.6875 0.59375q1.171875 0.578125 1.828125 1.78125q0.65625 1.203125 0.65625 3.03125l0 7.3125l-1.703125 0l0 -7.15625q0 -1.984375 -1.0 -3.0q-0.984375 -1.03125 -2.78125 -1.03125q-1.34375 0 -2.34375 0.546875q-1.0 0.53125 -1.546875 1.5625q-0.53125 1.015625 -0.53125 2.453125l0 6.625l-1.703125 0l0 -12.59375l1.640625 0l0 3.453125l-0.265625 -0.65625q0.59375 -1.359375 1.90625 -2.140625q1.328125 -0.78125 3.15625 -0.78125zm13.177063 12.84375q-1.5625 0 -2.953125 -0.4375q-1.390625 -0.453125 -2.1875 -1.125l0.765625 -1.34375q0.765625 0.578125 1.96875 1.0q1.203125 0.40625 2.515625 0.40625q1.8125 0 2.59375 -0.5625q0.796875 -0.5625 0.796875 -1.5q0 -0.6875 -0.453125 -1.078125q-0.4375 -0.40625 -1.15625 -0.609375q-0.71875 -0.203125 -1.609375 -0.34375q-0.890625 -0.140625 -1.765625 -0.328125q-0.875 -0.203125 -1.59375 -0.578125q-0.71875 -0.375 -1.171875 -1.015625q-0.4375 -0.65625 -0.4375 -1.734375q0 -1.03125 0.578125 -1.84375q0.578125 -0.8125 1.6875 -1.28125q1.125 -0.46875 2.734375 -0.46875q1.21875 0 2.4375 0.328125q1.234375 0.3125 2.015625 0.84375l-0.734375 1.375q-0.84375 -0.578125 -1.8125 -0.828125q-0.953125 -0.25 -1.90625 -0.25q-1.703125 0 -2.515625 0.59375q-0.796875 0.578125 -0.796875 1.484375q0 0.71875 0.4375 1.140625q0.4375 0.40625 1.171875 0.640625q0.734375 0.21875 1.609375 0.359375q0.875 0.140625 1.75 0.34375q0.875 0.203125 1.609375 0.5625q0.734375 0.34375 1.171875 0.984375q0.453125 0.625 0.453125 1.65625q0 1.109375 -0.609375 1.921875q-0.609375 0.796875 -1.78125 1.25q-1.15625 0.4375 -2.8125 0.4375zm5.3526 2.28125l7.90625 -22.609375l1.5625 0l-7.921875 22.609375l-1.546875 0zm12.767334 -2.28125q-1.5625 0 -2.953125 -0.4375q-1.390625 -0.453125 -2.1875 -1.125l0.765625 -1.34375q0.765625 0.578125 1.96875 1.0q1.203125 0.40625 2.515625 0.40625q1.8125 0 2.59375 -0.5625q0.796875 -0.5625 0.796875 -1.5q0 -0.6875 -0.453125 -1.078125q-0.4375 -0.40625 -1.15625 -0.609375q-0.71875 -0.203125 -1.609375 -0.34375q-0.890625 -0.140625 -1.765625 -0.328125q-0.875 -0.203125 -1.59375 -0.578125q-0.71875 -0.375 -1.171875 -1.015625q-0.4375 -0.65625 -0.4375 -1.734375q0 -1.03125 0.578125 -1.84375q0.578125 -0.8125 1.6875 -1.28125q1.125 -0.46875 2.734375 -0.46875q1.21875 0 2.4375 0.328125q1.234375 0.3125 2.015625 0.84375l-0.734375 1.375q-0.84375 -0.578125 -1.8125 -0.828125q-0.953125 -0.25 -1.90625 -0.25q-1.703125 0 -2.515625 0.59375q-0.796875 0.578125 -0.796875 1.484375q0 0.71875 0.4375 1.140625q0.4375 0.40625 1.171875 0.640625q0.734375 0.21875 1.609375 0.359375q0.875 0.140625 1.75 0.34375q0.875 0.203125 1.609375 0.5625q0.734375 0.34375 1.171875 0.984375q0.453125 0.625 0.453125 1.65625q0 1.109375 -0.609375 1.921875q-0.609375 0.796875 -1.78125 1.25q-1.15625 0.4375 -2.8125 0.4375zm12.305725 0q-1.78125 0 -2.75 -0.953125q-0.953125 -0.96875 -0.953125 -2.71875l0 -11.84375l1.71875 0l0 11.75q0 1.09375 0.5625 1.703125q0.5625 0.59375 1.609375 0.59375q1.140625 0 1.875 -0.640625l0.609375 1.21875q-0.515625 0.453125 -1.21875 0.671875q-0.703125 0.21875 -1.453125 0.21875zm-5.953125 -11.3125l0 -1.40625l7.796875 0l0 1.40625l-7.796875 0zm16.397339 11.3125q-1.828125 0 -3.28125 -0.828125q-1.453125 -0.828125 -2.296875 -2.28125q-0.828125 -1.453125 -0.828125 -3.328125q0 -1.890625 0.828125 -3.328125q0.84375 -1.453125 2.28125 -2.265625q1.4375 -0.8125 3.296875 -0.8125q1.875 0 3.3125 0.8125q1.453125 0.8125 2.28125 2.265625q0.828125 1.4375 0.828125 3.328125q0 1.875 -0.828125 3.328125q-0.828125 1.453125 -2.296875 2.28125q-1.453125 0.828125 -3.296875 0.828125zm0 -1.515625q1.359375 0 2.40625 -0.609375q1.0625 -0.609375 1.671875 -1.71875q0.625 -1.125 0.625 -2.59375q0 -1.484375 -0.625 -2.59375q-0.609375 -1.109375 -1.671875 -1.71875q-1.046875 -0.609375 -2.390625 -0.609375q-1.34375 0 -2.40625 0.609375q-1.046875 0.609375 -1.671875 1.71875q-0.625 1.109375 -0.625 2.59375q0 1.46875 0.625 2.59375q0.625 1.109375 1.671875 1.71875q1.0625 0.609375 2.390625 0.609375zm15.141724 1.515625q-1.875 0 -3.359375 -0.828125q-1.46875 -0.828125 -2.3125 -2.28125q-0.828125 -1.453125 -0.828125 -3.328125q0 -1.890625 0.828125 -3.328125q0.84375 -1.453125 2.3125 -2.265625q1.484375 -0.8125 3.359375 -0.8125q1.609375 0 2.90625 0.625q1.296875 0.625 2.03125 1.875l-1.265625 0.859375q-0.65625 -0.953125 -1.609375 -1.40625q-0.953125 -0.46875 -2.09375 -0.46875q-1.34375 0 -2.421875 0.609375q-1.078125 0.609375 -1.703125 1.71875q-0.625 1.109375 -0.625 2.59375q0 1.484375 0.625 2.59375q0.625 1.109375 1.703125 1.71875q1.078125 0.609375 2.421875 0.609375q1.140625 0 2.09375 -0.453125q0.953125 -0.453125 1.609375 -1.390625l1.265625 0.859375q-0.734375 1.21875 -2.03125 1.859375q-1.296875 0.640625 -2.90625 0.640625zm9.429321 -3.390625l0.046875 -2.1875l7.84375 -7.140625l2.09375 0l-5.546875 5.296875l-0.953125 0.8125l-3.484375 3.21875zm-1.34375 3.265625l0 -17.8125l1.703125 0l0 17.8125l-1.703125 0zm9.765625 0l-5.25 -6.546875l1.09375 -1.328125l6.25 7.875l-2.09375 0z" fill-rule="nonzero"/><path fill="#eeeeee" d="m527.2861 317.63516l370.36224 0l0 44.97638l-370.36224 0z" fill-rule="evenodd"/><path stroke="#595959" stroke-width="1.0" stroke-linejoin="round" stroke-linecap="butt" d="m527.2861 317.63516l370.36224 0l0 44.97638l-370.36224 0z" fill-rule="evenodd"/><path fill="#000000" fill-opacity="0.0" d="m527.2861 321.54068l201.00787 0l0 37.165344l-201.00787 0z" fill-rule="evenodd"/><path fill="#0000ff" d="m540.9267 344.69882q-1.140625 0 -2.046875 -0.5q-0.890625 -0.515625 -1.40625 -1.40625q-0.515625 -0.890625 -0.515625 -2.03125q0 -1.15625 0.515625 -2.03125q0.515625 -0.875 1.40625 -1.375q0.90625 -0.5 2.046875 -0.5q0.984375 0 1.765625 0.390625q0.796875 0.375 1.265625 1.125l-0.78125 0.53125q-0.390625 -0.578125 -0.984375 -0.859375q-0.59375 -0.28125 -1.28125 -0.28125q-0.8125 0 -1.484375 0.375q-0.65625 0.375 -1.03125 1.046875q-0.375 0.671875 -0.375 1.578125q0 0.90625 0.375 1.59375q0.375 0.671875 1.03125 1.046875q0.671875 0.375 1.484375 0.375q0.6875 0 1.28125 -0.28125q0.59375 -0.28125 0.984375 -0.859375l0.78125 0.53125q-0.46875 0.75 -1.265625 1.140625q-0.78125 0.390625 -1.765625 0.390625zm7.994507 0q-1.09375 0 -1.96875 -0.5q-0.875 -0.5 -1.375 -1.390625q-0.5 -0.890625 -0.5 -2.046875q0 -1.171875 0.5 -2.046875q0.5 -0.875 1.375 -1.359375q0.875 -0.5 1.96875 -0.5q1.015625 0 1.8125 0.453125q0.796875 0.453125 1.265625 1.328125q0.484375 0.875 0.484375 2.125q0 1.25 -0.46875 2.140625q-0.46875 0.875 -1.265625 1.34375q-0.796875 0.453125 -1.828125 0.453125zm0.078125 -0.921875q0.8125 0 1.46875 -0.375q0.65625 -0.375 1.015625 -1.046875q0.375 -0.6875 0.375 -1.59375q0 -0.90625 -0.375 -1.578125q-0.359375 -0.671875 -1.015625 -1.046875q-0.65625 -0.375 -1.46875 -0.375q-0.8125 0 -1.46875 0.375q-0.640625 0.375 -1.015625 1.046875q-0.375 0.671875 -0.375 1.578125q0 0.90625 0.375 1.59375q0.375 0.671875 1.015625 1.046875q0.65625 0.375 1.46875 0.375zm2.890625 0.84375l0 -2.3125l0.109375 -1.5625l-0.140625 -1.546875l0 -5.453125l1.03125 0l0 10.875l-1.0 0zm6.9682617 0.078125q-1.09375 0 -1.96875 -0.5q-0.875 -0.5 -1.375 -1.390625q-0.5 -0.890625 -0.5 -2.046875q0 -1.171875 0.5 -2.046875q0.5 -0.875 1.375 -1.359375q0.875 -0.5 1.96875 -0.5q1.015625 0 1.8125 0.453125q0.796875 0.453125 1.265625 1.328125q0.484375 0.875 0.484375 2.125q0 1.25 -0.46875 2.140625q-0.46875 0.875 -1.265625 1.34375q-0.796875 0.453125 -1.828125 0.453125zm0.078125 -0.921875q0.8125 0 1.46875 -0.375q0.65625 -0.375 1.015625 -1.046875q0.375 -0.6875 0.375 -1.59375q0 -0.90625 -0.375 -1.578125q-0.359375 -0.671875 -1.015625 -1.046875q-0.65625 -0.375 -1.46875 -0.375q-0.8125 0 -1.46875 0.375q-0.640625 0.375 -1.015625 1.046875q-0.375 0.671875 -0.375 1.578125q0 0.90625 0.375 1.59375q0.375 0.671875 1.015625 1.046875q0.65625 0.375 1.46875 0.375zm2.890625 0.84375l0 -2.3125l0.109375 -1.5625l-0.140625 -1.546875l0 -5.453125l1.03125 0l0 10.875l-1.0 0z" fill-rule="nonzero"/><path fill="#000000" fill-opacity="0.0" d="m712.46716 170.61154l0 147.02362" fill-rule="evenodd"/><path stroke="#595959" stroke-width="1.0" stroke-linejoin="round" stroke-linecap="butt" d="m712.46716 170.61154l0 141.02362" fill-rule="evenodd"/><path fill="#595959" stroke="#595959" stroke-width="1.0" stroke-linecap="butt" d="m710.8154 311.63516l1.6517334 4.5381165l1.6517334 -4.5381165z" fill-rule="evenodd"/></g></svg>