<svg version="1.1" viewBox="0.0 0.0 960.0 540.0" fill="none" stroke="none" stroke-linecap="square" stroke-miterlimit="10" xmlns:xlink="http://www.w3.org/1999/xlink" xmlns="http://www.w3.org/2000/svg"><clipPath id="g2bb2b6b8a42_0_10.0"><path d="m0 0l960.0 0l0 540.0l-960.0 0l0 -540.0z" clip-rule="nonzero"/></clipPath><g clip-path="url(#g2bb2b6b8a42_0_10.0)"><path fill="#ffffff" d="m0 0l960.0 0l0 540.0l-960.0 0z" fill-rule="evenodd"/><path fill="#eeeeee" d="m56.11811 111.79002l188.8504 0l0 258.5512l-188.8504 0z" fill-rule="evenodd"/><path stroke="#595959" stroke-width="1.0" stroke-linejoin="round" stroke-linecap="butt" d="m56.11811 111.79002l188.8504 0l0 258.5512l-188.8504 0z" fill-rule="evenodd"/><path fill="#000000" fill-opacity="0.0" d="m60.360382 111.79002l221.35434 0l0 357.00787l-221.35434 0z" fill-rule="evenodd"/><path fill="#595959" d="m71.90726 134.87003l0 -9.8125l0.46875 0.484375l-2.890625 0l0 -0.9375l3.484375 0l0 10.265625l-1.0625 0z" fill-rule="nonzero"/><path fill="#ff0000" d="m84.75688 134.87003l0 -1.703125l-0.03125 -0.28125l0 -2.84375q0 -0.96875 -0.5625 -1.5q-0.546875 -0.53125 -1.625 -0.53125q-0.75 0 -1.421875 0.25q-0.671875 0.25 -1.140625 0.65625l-0.46875 -0.78125q0.578125 -0.484375 1.390625 -0.75q0.828125 -0.28125 1.734375 -0.28125q1.5 0 2.3125 0.75q0.8125 0.734375 0.8125 2.234375l0 4.78125l-1.0 0zm-2.640625 0.078125q-0.875 0 -1.515625 -0.28125q-0.625 -0.296875 -0.96875 -0.796875q-0.328125 -0.515625 -0.328125 -1.171875q0 -0.59375 0.28125 -1.078125q0.28125 -0.5 0.9375 -0.796875q0.65625 -0.3125 1.75 -0.3125l2.65625 0l0 0.78125l-2.625 0q-1.109375 0 -1.546875 0.40625q-0.4375 0.390625 -0.4375 0.96875q0 0.671875 0.515625 1.0625q0.515625 0.390625 1.4375 0.390625q0.875 0 1.515625 -0.390625q0.640625 -0.40625 0.9375 -1.171875l0.234375 0.71875q-0.296875 0.765625 -1.03125 1.21875q-0.71875 0.453125 -1.8125 0.453125zm11.287842 -0.078125l0 -1.703125l-0.03125 -0.28125l0 -2.84375q0 -0.96875 -0.5625 -1.5q-0.546875 -0.53125 -1.625 -0.53125q-0.75 0 -1.421875 0.25q-0.671875 0.25 -1.140625 0.65625l-0.46875 -0.78125q0.578125 -0.484375 1.390625 -0.75q0.828125 -0.28125 1.734375 -0.28125q1.5 0 2.3125 0.75q0.8125 0.734375 0.8125 2.234375l0 4.78125l-1.0 0zm-2.640625 0.078125q-0.875 0 -1.515625 -0.28125q-0.625 -0.296875 -0.96875 -0.796875q-0.328125 -0.515625 -0.328125 -1.171875q0 -0.59375 0.28125 -1.078125q0.28125 -0.5 0.9375 -0.796875q0.65625 -0.3125 1.75 -0.3125l2.65625 0l0 0.78125l-2.625 0q-1.109375 0 -1.546875 0.40625q-0.4375 0.390625 -0.4375 0.96875q0 0.671875 0.515625 1.0625q0.515625 0.390625 1.4375 0.390625q0.875 0 1.515625 -0.390625q0.640625 -0.40625 0.9375 -1.171875l0.234375 0.71875q-0.296875 0.765625 -1.03125 1.21875q-0.71875 0.453125 -1.8125 0.453125zm11.287842 -0.078125l0 -1.703125l-0.03125 -0.28125l0 -2.84375q0 -0.96875 -0.5625 -1.5q-0.546875 -0.53125 -1.625 -0.53125q-0.75 0 -1.421875 0.25q-0.671875 0.25 -1.140625 0.65625l-0.46875 -0.78125q0.578125 -0.484375 1.390625 -0.75q0.828125 -0.28125 1.734375 -0.28125q1.5 0 2.3125 0.75q0.8125 0.734375 0.8125 2.234375l0 4.78125l-1.0 0zm-2.640625 0.078125q-0.875 0 -1.515625 -0.28125q-0.625 -0.296875 -0.96875 -0.796875q-0.328125 -0.515625 -0.328125 -1.171875q0 -0.59375 0.28125 -1.078125q0.28125 -0.5 0.9375 -0.796875q0.65625 -0.3125 1.75 -0.3125l2.65625 0l0 0.78125l-2.625 0q-1.109375 0 -1.546875 0.40625q-0.4375 0.390625 -0.4375 0.96875q0 0.671875 0.515625 1.0625q0.515625 0.390625 1.4375 0.390625q0.875 0 1.515625 -0.390625q0.640625 -0.40625 0.9375 -1.171875l0.234375 0.71875q-0.296875 0.765625 -1.03125 1.21875q-0.71875 0.453125 -1.8125 0.453125zm10.444092 0q-1.015625 0 -1.828125 -0.453125q-0.796875 -0.46875 -1.265625 -1.34375q-0.46875 -0.890625 -0.46875 -2.140625q0 -1.25 0.46875 -2.125q0.484375 -0.875 1.28125 -1.328125q0.8125 -0.453125 1.8125 -0.453125q1.09375 0 1.96875 0.5q0.875 0.484375 1.375 1.359375q0.5 0.875 0.5 2.046875q0 1.15625 -0.5 2.046875q-0.5 0.890625 -1.375 1.390625q-0.875 0.5 -1.96875 0.5zm-3.96875 -0.078125l0 -10.875l1.03125 0l0 5.453125l-0.140625 1.546875l0.109375 1.5625l0 2.3125l-1.0 0zm3.890625 -0.84375q0.828125 0 1.46875 -0.375q0.640625 -0.375 1.015625 -1.046875q0.390625 -0.6875 0.390625 -1.59375q0 -0.90625 -0.390625 -1.578125q-0.375 -0.671875 -1.015625 -1.046875q-0.640625 -0.375 -1.46875 -0.375q-0.8125 0 -1.46875 0.375q-0.65625 0.375 -1.03125 1.046875q-0.359375 0.671875 -0.359375 1.578125q0 0.90625 0.359375 1.59375q0.375 0.671875 1.03125 1.046875q0.65625 0.375 1.46875 0.375z" fill-rule="nonzero"/><path fill="#595959" d="m119.79176 134.94815q-1.015625 0 -1.828125 -0.453125q-0.796875 -0.46875 -1.265625 -1.34375q-0.46875 -0.890625 -0.46875 -2.140625q0 -1.25 0.46875 -2.125q0.484375 -0.875 1.28125 -1.328125q0.8125 -0.453125 1.8125 -0.453125q1.09375 0 1.96875 0.5q0.875 0.484375 1.375 1.359375q0.5 0.875 0.5 2.046875q0 1.15625 -0.5 2.046875q-0.5 0.890625 -1.375 1.390625q-0.875 0.5 -1.96875 0.5zm-3.96875 -0.078125l0 -10.875l1.03125 0l0 5.453125l-0.140625 1.546875l0.109375 1.5625l0 2.3125l-1.0 0zm3.890625 -0.84375q0.828125 0 1.46875 -0.375q0.640625 -0.375 1.015625 -1.046875q0.390625 -0.6875 0.390625 -1.59375q0 -0.90625 -0.390625 -1.578125q-0.375 -0.671875 -1.015625 -1.046875q-0.640625 -0.375 -1.46875 -0.375q-0.8125 0 -1.46875 0.375q-0.65625 0.375 -1.03125 1.046875q-0.359375 0.671875 -0.359375 1.578125q0 0.90625 0.359375 1.59375q0.375 0.671875 1.03125 1.046875q0.65625 0.375 1.46875 0.375zm10.015106 0.921875q-1.015625 0 -1.828125 -0.453125q-0.796875 -0.46875 -1.265625 -1.34375q-0.46875 -0.890625 -0.46875 -2.140625q0 -1.25 0.46875 -2.125q0.484375 -0.875 1.28125 -1.328125q0.8125 -0.453125 1.8125 -0.453125q1.09375 0 1.96875 0.5q0.875 0.484375 1.375 1.359375q0.5 0.875 0.5 2.046875q0 1.15625 -0.5 2.046875q-0.5 0.890625 -1.375 1.390625q-0.875 0.5 -1.96875 0.5zm-3.96875 -0.078125l0 -10.875l1.03125 0l0 5.453125l-0.140625 1.546875l0.109375 1.5625l0 2.3125l-1.0 0zm3.890625 -0.84375q0.828125 0 1.46875 -0.375q0.640625 -0.375 1.015625 -1.046875q0.390625 -0.6875 0.390625 -1.59375q0 -0.90625 -0.390625 -1.578125q-0.375 -0.671875 -1.015625 -1.046875q-0.640625 -0.375 -1.46875 -0.375q-0.8125 0 -1.46875 0.375q-0.65625 0.375 -1.03125 1.046875q-0.359375 0.671875 -0.359375 1.578125q0 0.90625 0.359375 1.59375q0.375 0.671875 1.03125 1.046875q0.65625 0.375 1.46875 0.375zm9.233856 0.921875q-1.140625 0 -2.046875 -0.5q-0.890625 -0.515625 -1.40625 -1.40625q-0.515625 -0.890625 -0.515625 -2.03125q0 -1.15625 0.515625 -2.03125q0.515625 -0.875 1.40625 -1.375q0.90625 -0.5 2.046875 -0.5q0.984375 0 1.765625 0.390625q0.796875 0.375 1.265625 1.125l-0.78125 0.53125q-0.390625 -0.578125 -0.984375 -0.859375q-0.59375 -0.28125 -1.28125 -0.28125q-0.8125 0 -1.484375 0.375q-0.65625 0.375 -1.03125 1.046875q-0.375 0.671875 -0.375 1.578125q0 0.90625 0.375 1.59375q0.375 0.671875 1.03125 1.046875q0.671875 0.375 1.484375 0.375q0.6875 0 1.28125 -0.28125q0.59375 -0.28125 0.984375 -0.859375l0.78125 0.53125q-0.46875 0.75 -1.265625 1.140625q-0.78125 0.390625 -1.765625 0.390625zm8.119492 0q-1.140625 0 -2.046875 -0.5q-0.890625 -0.515625 -1.40625 -1.40625q-0.515625 -0.890625 -0.515625 -2.03125q0 -1.15625 0.515625 -2.03125q0.515625 -0.875 1.40625 -1.375q0.90625 -0.5 2.046875 -0.5q0.984375 0 1.765625 0.390625q0.796875 0.375 1.265625 1.125l-0.78125 0.53125q-0.390625 -0.578125 -0.984375 -0.859375q-0.59375 -0.28125 -1.28125 -0.28125q-0.8125 0 -1.484375 0.375q-0.65625 0.375 -1.03125 1.046875q-0.375 0.671875 -0.375 1.578125q0 0.90625 0.375 1.59375q0.375 0.671875 1.03125 1.046875q0.671875 0.375 1.484375 0.375q0.6875 0 1.28125 -0.28125q0.59375 -0.28125 0.984375 -0.859375l0.78125 0.53125q-0.46875 0.75 -1.265625 1.140625q-0.78125 0.390625 -1.765625 0.390625zm8.188126 1.390625l-0.953125 0l-4.84375 -13.8125l0.953125 0l4.84375 13.8125zm5.0036163 -9.234375q0.9375 0 1.640625 0.359375q0.71875 0.359375 1.125 1.09375q0.40625 0.734375 0.40625 1.84375l0 4.46875l-1.046875 0l0 -4.375q0 -1.203125 -0.609375 -1.828125q-0.609375 -0.625 -1.703125 -0.625q-0.8125 0 -1.421875 0.328125q-0.609375 0.328125 -0.953125 0.953125q-0.328125 0.625 -0.328125 1.5l0 4.046875l-1.03125 0l0 -7.6875l1.0 0l0 2.109375l-0.171875 -0.40625q0.375 -0.828125 1.171875 -1.296875q0.8125 -0.484375 1.921875 -0.484375z" fill-rule="nonzero"/><path fill="#595959" d="m69.93851 152.47003l0 -0.75l4.265625 -4.171875q0.578125 -0.578125 0.875 -1.0q0.296875 -0.4375 0.390625 -0.8125q0.109375 -0.390625 0.109375 -0.71875q0 -0.90625 -0.609375 -1.40625q-0.609375 -0.515625 -1.796875 -0.515625q-0.90625 0 -1.609375 0.28125q-0.6875 0.265625 -1.1875 0.859375l-0.75 -0.640625q0.59375 -0.703125 1.53125 -1.078125q0.9375 -0.390625 2.109375 -0.390625q1.03125 0 1.796875 0.328125q0.765625 0.328125 1.171875 0.96875q0.421875 0.625 0.421875 1.46875q0 0.5 -0.140625 0.984375q-0.140625 0.484375 -0.5 1.015625q-0.359375 0.53125 -1.046875 1.203125l-3.90625 3.84375l-0.296875 -0.40625l6.359375 0l0 0.9375l-7.1875 0zm16.227234 0.078125q-1.140625 0 -2.046875 -0.5q-0.890625 -0.515625 -1.40625 -1.40625q-0.515625 -0.890625 -0.515625 -2.03125q0 -1.15625 0.515625 -2.03125q0.515625 -0.875 1.40625 -1.375q0.90625 -0.5 2.046875 -0.5q0.984375 0 1.765625 0.390625q0.796875 0.375 1.265625 1.125l-0.78125 0.53125q-0.390625 -0.578125 -0.984375 -0.859375q-0.59375 -0.28125 -1.28125 -0.28125q-0.8125 0 -1.484375 0.375q-0.65625 0.375 -1.03125 1.046875q-0.375 0.671875 -0.375 1.578125q0 0.90625 0.375 1.59375q0.375 0.671875 1.03125 1.046875q0.671875 0.375 1.484375 0.375q0.6875 0 1.28125 -0.28125q0.59375 -0.28125 0.984375 -0.859375l0.78125 0.53125q-0.46875 0.75 -1.265625 1.140625q-0.78125 0.390625 -1.765625 0.390625zm7.9944916 0q-1.09375 0 -1.96875 -0.5q-0.875 -0.5 -1.375 -1.390625q-0.5 -0.890625 -0.5 -2.046875q0 -1.171875 0.5 -2.046875q0.5 -0.875 1.375 -1.359375q0.875 -0.5 1.96875 -0.5q1.015625 0 1.8125 0.453125q0.796875 0.453125 1.265625 1.328125q0.484375 0.875 0.484375 2.125q0 1.25 -0.46875 2.140625q-0.46875 0.875 -1.265625 1.34375q-0.796875 0.453125 -1.828125 0.453125zm0.078125 -0.921875q0.8125 0 1.46875 -0.375q0.65625 -0.375 1.015625 -1.046875q0.375 -0.6875 0.375 -1.59375q0 -0.90625 -0.375 -1.578125q-0.359375 -0.671875 -1.015625 -1.046875q-0.65625 -0.375 -1.46875 -0.375q-0.8125 0 -1.46875 0.375q-0.640625 0.375 -1.015625 1.046875q-0.375 0.671875 -0.375 1.578125q0 0.90625 0.375 1.59375q0.375 0.671875 1.015625 1.046875q0.65625 0.375 1.46875 0.375zm2.890625 0.84375l0 -2.3125l0.109375 -1.5625l-0.140625 -1.546875l0 -5.453125l1.03125 0l0 10.875l-1.0 0zm6.968231 0.078125q-1.09375 0 -1.96875 -0.5q-0.875 -0.5 -1.375 -1.390625q-0.5 -0.890625 -0.5 -2.046875q0 -1.171875 0.5 -2.046875q0.5 -0.875 1.375 -1.359375q0.875 -0.5 1.96875 -0.5q1.015625 0 1.8125 0.453125q0.796875 0.453125 1.265625 1.328125q0.484375 0.875 0.484375 2.125q0 1.25 -0.46875 2.140625q-0.46875 0.875 -1.265625 1.34375q-0.796875 0.453125 -1.828125 0.453125zm0.078125 -0.921875q0.8125 0 1.46875 -0.375q0.65625 -0.375 1.015625 -1.046875q0.375 -0.6875 0.375 -1.59375q0 -0.90625 -0.375 -1.578125q-0.359375 -0.671875 -1.015625 -1.046875q-0.65625 -0.375 -1.46875 -0.375q-0.8125 0 -1.46875 0.375q-0.640625 0.375 -1.015625 1.046875q-0.375 0.671875 -0.375 1.578125q0 0.90625 0.375 1.59375q0.375 0.671875 1.015625 1.046875q0.65625 0.375 1.46875 0.375zm2.890625 0.84375l0 -2.3125l0.109375 -1.5625l-0.140625 -1.546875l0 -5.453125l1.03125 0l0 10.875l-1.0 0zm6.968231 0.078125q-1.09375 0 -1.96875 -0.5q-0.875 -0.5 -1.375 -1.390625q-0.5 -0.890625 -0.5 -2.046875q0 -1.171875 0.5 -2.046875q0.5 -0.875 1.375 -1.359375q0.875 -0.5 1.96875 -0.5q1.015625 0 1.8125 0.453125q0.796875 0.453125 1.265625 1.328125q0.484375 0.875 0.484375 2.125q0 1.25 -0.46875 2.140625q-0.46875 0.875 -1.265625 1.34375q-0.796875 0.453125 -1.828125 0.453125zm0.078125 -0.921875q0.8125 0 1.46875 -0.375q0.65625 -0.375 1.015625 -1.046875q0.375 -0.6875 0.375 -1.59375q0 -0.90625 -0.375 -1.578125q-0.359375 -0.671875 -1.015625 -1.046875q-0.65625 -0.375 -1.46875 -0.375q-0.8125 0 -1.46875 0.375q-0.640625 0.375 -1.015625 1.046875q-0.375 0.671875 -0.375 1.578125q0 0.90625 0.375 1.59375q0.375 0.671875 1.015625 1.046875q0.65625 0.375 1.46875 0.375zm2.890625 0.84375l0 -2.3125l0.109375 -1.5625l-0.140625 -1.546875l0 -5.453125l1.03125 0l0 10.875l-1.0 0zm7.171356 0.078125q-1.203125 0 -2.109375 -0.5q-0.90625 -0.515625 -1.421875 -1.40625q-0.515625 -0.890625 -0.515625 -2.03125q0 -1.140625 0.484375 -2.015625q0.5 -0.875 1.359375 -1.375q0.859375 -0.515625 1.921875 -0.515625q1.09375 0 1.921875 0.5q0.84375 0.484375 1.328125 1.375q0.484375 0.875 0.484375 2.03125q0 0.078125 -0.015625 0.15625q0 0.078125 0 0.171875l-6.6875 0l0 -0.78125l6.140625 0l-0.40625 0.3125q0 -0.84375 -0.359375 -1.484375q-0.359375 -0.65625 -0.984375 -1.015625q-0.609375 -0.375 -1.421875 -0.375q-0.78125 0 -1.421875 0.375q-0.625 0.359375 -0.984375 1.015625q-0.34375 0.65625 -0.34375 1.515625l0 0.15625q0 0.875 0.390625 1.546875q0.390625 0.671875 1.078125 1.046875q0.703125 0.375 1.59375 0.375q0.703125 0 1.3125 -0.25q0.609375 -0.25 1.046875 -0.765625l0.578125 0.671875q-0.5 0.609375 -1.28125 0.9375q-0.765625 0.328125 -1.6875 0.328125zm8.852402 0q-1.203125 0 -2.109375 -0.5q-0.90625 -0.515625 -1.421875 -1.40625q-0.515625 -0.890625 -0.515625 -2.03125q0 -1.140625 0.484375 -2.015625q0.5 -0.875 1.359375 -1.375q0.859375 -0.515625 1.921875 -0.515625q1.09375 0 1.921875 0.5q0.84375 0.484375 1.328125 1.375q0.484375 0.875 0.484375 2.03125q0 0.078125 -0.015625 0.15625q0 0.078125 0 0.171875l-6.6875 0l0 -0.78125l6.140625 0l-0.40625 0.3125q0 -0.84375 -0.359375 -1.484375q-0.359375 -0.65625 -0.984375 -1.015625q-0.609375 -0.375 -1.421875 -0.375q-0.78125 0 -1.421875 0.375q-0.625 0.359375 -0.984375 1.015625q-0.34375 0.65625 -0.34375 1.515625l0 0.15625q0 0.875 0.390625 1.546875q0.390625 0.671875 1.078125 1.046875q0.703125 0.375 1.59375 0.375q0.703125 0 1.3125 -0.25q0.609375 -0.25 1.046875 -0.765625l0.578125 0.671875q-0.5 0.609375 -1.28125 0.9375q-0.765625 0.328125 -1.6875 0.328125zm8.852402 0q-1.203125 0 -2.109375 -0.5q-0.90625 -0.515625 -1.421875 -1.40625q-0.515625 -0.890625 -0.515625 -2.03125q0 -1.140625 0.484375 -2.015625q0.5 -0.875 1.359375 -1.375q0.859375 -0.515625 1.921875 -0.515625q1.09375 0 1.921875 0.5q0.84375 0.484375 1.328125 1.375q0.484375 0.875 0.484375 2.03125q0 0.078125 -0.015625 0.15625q0 0.078125 0 0.171875l-6.6875 0l0 -0.78125l6.140625 0l-0.40625 0.3125q0 -0.84375 -0.359375 -1.484375q-0.359375 -0.65625 -0.984375 -1.015625q-0.609375 -0.375 -1.421875 -0.375q-0.78125 0 -1.421875 0.375q-0.625 0.359375 -0.984375 1.015625q-0.34375 0.65625 -0.34375 1.515625l0 0.15625q0 0.875 0.390625 1.546875q0.390625 0.671875 1.078125 1.046875q0.703125 0.375 1.59375 0.375q0.703125 0 1.3125 -0.25q0.609375 -0.25 1.046875 -0.765625l0.578125 0.671875q-0.5 0.609375 -1.28125 0.9375q-0.765625 0.328125 -1.6875 0.328125zm5.7586517 -0.078125l0 -8.65625q0 -1.03125 0.59375 -1.65625q0.609375 -0.640625 1.734375 -0.640625q0.4375 0 0.84375 0.125q0.421875 0.109375 0.703125 0.359375l-0.359375 0.78125q-0.21875 -0.1875 -0.515625 -0.28125q-0.28125 -0.09375 -0.625 -0.09375q-0.65625 0 -1.015625 0.359375q-0.34375 0.359375 -0.34375 1.078125l0 1.171875l0.03125 0.484375l0 6.96875l-1.046875 0zm-1.375 -6.828125l0 -0.859375l4.765625 0l0 0.859375l-4.765625 0zm6.372818 6.828125l0 -8.65625q0 -1.03125 0.59375 -1.65625q0.609375 -0.640625 1.734375 -0.640625q0.4375 0 0.84375 0.125q0.421875 0.109375 0.703125 0.359375l-0.359375 0.78125q-0.21875 -0.1875 -0.515625 -0.28125q-0.28125 -0.09375 -0.625 -0.09375q-0.65625 0 -1.015625 0.359375q-0.34375 0.359375 -0.34375 1.078125l0 1.171875l0.03125 0.484375l0 6.96875l-1.046875 0zm-1.375 -6.828125l0 -0.859375l4.765625 0l0 0.859375l-4.765625 0zm6.372818 6.828125l0 -8.65625q0 -1.03125 0.59375 -1.65625q0.609375 -0.640625 1.734375 -0.640625q0.4375 0 0.84375 0.125q0.421875 0.109375 0.703125 0.359375l-0.359375 0.78125q-0.21875 -0.1875 -0.515625 -0.28125q-0.28125 -0.09375 -0.625 -0.09375q-0.65625 0 -1.015625 0.359375q-0.34375 0.359375 -0.34375 1.078125l0 1.171875l0.03125 0.484375l0 6.96875l-1.046875 0zm-1.375 -6.828125l0 -0.859375l4.765625 0l0 0.859375l-4.765625 0zm9.320862 9.75q-1.0625 0 -2.03125 -0.3125q-0.953125 -0.3125 -1.5625 -0.875l0.53125 -0.796875q0.546875 0.484375 1.34375 0.765625q0.796875 0.296875 1.6875 0.296875q1.46875 0 2.15625 -0.6875q0.6875 -0.6875 0.6875 -2.125l0 -1.90625l0.140625 -1.328125l-0.09375 -1.3125l0 -2.328125l1.0 0l0 6.75q0 2.0 -0.984375 2.921875q-0.96875 0.9375 -2.875 0.9375zm-0.1875 -3.21875q-1.109375 0 -1.984375 -0.46875q-0.875 -0.484375 -1.390625 -1.328125q-0.5 -0.859375 -0.5 -1.953125q0 -1.09375 0.5 -1.9375q0.515625 -0.84375 1.390625 -1.3125q0.875 -0.46875 1.984375 -0.46875q1.015625 0 1.828125 0.421875q0.828125 0.421875 1.3125 1.265625q0.484375 0.828125 0.484375 2.03125q0 1.203125 -0.484375 2.046875q-0.484375 0.828125 -1.3125 1.265625q-0.8125 0.4375 -1.828125 0.4375zm0.09375 -0.921875q0.859375 0 1.515625 -0.359375q0.65625 -0.359375 1.03125 -0.984375q0.390625 -0.640625 0.390625 -1.484375q0 -0.828125 -0.390625 -1.453125q-0.375 -0.640625 -1.03125 -1.0q-0.65625 -0.359375 -1.515625 -0.359375q-0.828125 0 -1.5 0.359375q-0.65625 0.359375 -1.03125 1.0q-0.375 0.625 -0.375 1.453125q0 0.84375 0.375 1.484375q0.375 0.625 1.03125 0.984375q0.671875 0.359375 1.5 0.359375zm10.133316 4.140625q-1.0625 0 -2.03125 -0.3125q-0.953125 -0.3125 -1.5625 -0.875l0.53125 -0.796875q0.546875 0.484375 1.34375 0.765625q0.796875 0.296875 1.6875 0.296875q1.46875 0 2.15625 -0.6875q0.6875 -0.6875 0.6875 -2.125l0 -1.90625l0.140625 -1.328125l-0.09375 -1.3125l0 -2.328125l1.0 0l0 6.75q0 2.0 -0.984375 2.921875q-0.96875 0.9375 -2.875 0.9375zm-0.1875 -3.21875q-1.109375 0 -1.984375 -0.46875q-0.875 -0.484375 -1.390625 -1.328125q-0.5 -0.859375 -0.5 -1.953125q0 -1.09375 0.5 -1.9375q0.515625 -0.84375 1.390625 -1.3125q0.875 -0.46875 1.984375 -0.46875q1.015625 0 1.828125 0.421875q0.828125 0.421875 1.3125 1.265625q0.484375 0.828125 0.484375 2.03125q0 1.203125 -0.484375 2.046875q-0.484375 0.828125 -1.3125 1.265625q-0.8125 0.4375 -1.828125 0.4375zm0.09375 -0.921875q0.859375 0 1.515625 -0.359375q0.65625 -0.359375 1.03125 -0.984375q0.390625 -0.640625 0.390625 -1.484375q0 -0.828125 -0.390625 -1.453125q-0.375 -0.640625 -1.03125 -1.0q-0.65625 -0.359375 -1.515625 -0.359375q-0.828125 0 -1.5 0.359375q-0.65625 0.359375 -1.03125 1.0q-0.375 0.625 -0.375 1.453125q0 0.84375 0.375 1.484375q0.375 0.625 1.03125 0.984375q0.671875 0.359375 1.5 0.359375zm10.133316 4.140625q-1.0625 0 -2.03125 -0.3125q-0.953125 -0.3125 -1.5625 -0.875l0.53125 -0.796875q0.546875 0.484375 1.34375 0.765625q0.796875 0.296875 1.6875 0.296875q1.46875 0 2.15625 -0.6875q0.6875 -0.6875 0.6875 -2.125l0 -1.90625l0.140625 -1.328125l-0.09375 -1.3125l0 -2.328125l1.0 0l0 6.75q0 2.0 -0.984375 2.921875q-0.96875 0.9375 -2.875 0.9375zm-0.1875 -3.21875q-1.109375 0 -1.984375 -0.46875q-0.875 -0.484375 -1.390625 -1.328125q-0.5 -0.859375 -0.5 -1.953125q0 -1.09375 0.5 -1.9375q0.515625 -0.84375 1.390625 -1.3125q0.875 -0.46875 1.984375 -0.46875q1.015625 0 1.828125 0.421875q0.828125 0.421875 1.3125 1.265625q0.484375 0.828125 0.484375 2.03125q0 1.203125 -0.484375 2.046875q-0.484375 0.828125 -1.3125 1.265625q-0.8125 0.4375 -1.828125 0.4375zm0.09375 -0.921875q0.859375 0 1.515625 -0.359375q0.65625 -0.359375 1.03125 -0.984375q0.390625 -0.640625 0.390625 -1.484375q0 -0.828125 -0.390625 -1.453125q-0.375 -0.640625 -1.03125 -1.0q-0.65625 -0.359375 -1.515625 -0.359375q-0.828125 0 -1.5 0.359375q-0.65625 0.359375 -1.03125 1.0q-0.375 0.625 -0.375 1.453125q0 0.84375 0.375 1.484375q0.375 0.625 1.03125 0.984375q0.671875 0.359375 1.5 0.359375zm10.773941 -6.546875q0.9375 0 1.640625 0.359375q0.71875 0.359375 1.125 1.09375q0.40625 0.734375 0.40625 1.84375l0 4.46875l-1.046875 0l0 -4.375q0 -1.203125 -0.609375 -1.828125q-0.609375 -0.625 -1.703125 -0.625q-0.8125 0 -1.421875 0.328125q-0.609375 0.328125 -0.953125 0.953125q-0.328125 0.625 -0.328125 1.5l0 4.046875l-1.03125 0l0 -10.875l1.03125 0l0 5.296875l-0.203125 -0.40625q0.375 -0.828125 1.171875 -1.296875q0.8125 -0.484375 1.921875 -0.484375zm9.907669 0q0.9375 0 1.640625 0.359375q0.71875 0.359375 1.125 1.09375q0.40625 0.734375 0.40625 1.84375l0 4.46875l-1.046875 0l0 -4.375q0 -1.203125 -0.609375 -1.828125q-0.609375 -0.625 -1.703125 -0.625q-0.8125 0 -1.421875 0.328125q-0.609375 0.328125 -0.953125 0.953125q-0.328125 0.625 -0.328125 1.5l0 4.046875l-1.03125 0l0 -10.875l1.03125 0l0 5.296875l-0.203125 -0.40625q0.375 -0.828125 1.171875 -1.296875q0.8125 -0.484375 1.921875 -0.484375zm8.816589 9.234375l-0.953125 0l-4.84375 -13.8125l0.953125 0l4.84375 13.8125zm5.0036163 -9.234375q0.9375 0 1.640625 0.359375q0.71875 0.359375 1.125 1.09375q0.40625 0.734375 0.40625 1.84375l0 4.46875l-1.046875 0l0 -4.375q0 -1.203125 -0.609375 -1.828125q-0.609375 -0.625 -1.703125 -0.625q-0.8125 0 -1.421875 0.328125q-0.609375 0.328125 -0.953125 0.953125q-0.328125 0.625 -0.328125 1.5l0 4.046875l-1.03125 0l0 -7.6875l1.0 0l0 2.109375l-0.171875 -0.40625q0.375 -0.828125 1.171875 -1.296875q0.8125 -0.484375 1.921875 -0.484375z" fill-rule="nonzero"/><path fill="#595959" d="m73.18851 170.16377q-1.109375 0 -2.109375 -0.359375q-0.984375 -0.359375 -1.59375 -0.96875l0.515625 -0.828125q0.5 0.515625 1.34375 0.859375q0.84375 0.328125 1.84375 0.328125q1.265625 0 1.953125 -0.5625q0.6875 -0.5625 0.6875 -1.5q0 -0.9375 -0.671875 -1.484375q-0.671875 -0.5625 -2.109375 -0.5625l-0.734375 0l0 -0.78125l3.171875 -3.96875l0.140625 0.40625l-5.703125 0l0 -0.9375l6.59375 0l0 0.75l-3.171875 3.96875l-0.515625 -0.328125l0.40625 0q1.84375 0 2.75 0.828125q0.921875 0.8125 0.921875 2.09375q0 0.875 -0.40625 1.5625q-0.40625 0.6875 -1.234375 1.09375q-0.828125 0.390625 -2.078125 0.390625zm8.559235 -0.09375l3.25 -4.21875l-0.015625 0.515625l-3.09375 -3.984375l1.171875 0l2.546875 3.296875l-0.453125 -0.015625l2.546875 -3.28125l1.140625 0l-3.125 4.015625l0.015625 -0.546875l3.28125 4.21875l-1.1875 0l-2.6875 -3.515625l0.421875 0.0625l-2.640625 3.453125l-1.171875 0zm7.826462 0l3.25 -4.21875l-0.015625 0.515625l-3.09375 -3.984375l1.171875 0l2.546875 3.296875l-0.453125 -0.015625l2.546875 -3.28125l1.140625 0l-3.125 4.015625l0.015625 -0.546875l3.28125 4.21875l-1.1875 0l-2.6875 -3.515625l0.421875 0.0625l-2.640625 3.453125l-1.171875 0zm7.826462 0l3.25 -4.21875l-0.015625 0.515625l-3.09375 -3.984375l1.171875 0l2.546875 3.296875l-0.453125 -0.015625l2.546875 -3.28125l1.140625 0l-3.125 4.015625l0.015625 -0.546875l3.28125 4.21875l-1.1875 0l-2.6875 -3.515625l0.421875 0.0625l-2.640625 3.453125l-1.171875 0zm7.826462 0l3.25 -4.21875l-0.015625 0.515625l-3.09375 -3.984375l1.171875 0l2.546875 3.296875l-0.453125 -0.015625l2.546875 -3.28125l1.140625 0l-3.125 4.015625l0.015625 -0.546875l3.28125 4.21875l-1.1875 0l-2.6875 -3.515625l0.421875 0.0625l-2.640625 3.453125l-1.171875 0zm7.826462 0l3.25 -4.21875l-0.015625 0.515625l-3.09375 -3.984375l1.171875 0l2.546875 3.296875l-0.453125 -0.015625l2.546875 -3.28125l1.140625 0l-3.125 4.015625l0.015625 -0.546875l3.28125 4.21875l-1.1875 0l-2.6875 -3.515625l0.421875 0.0625l-2.640625 3.453125l-1.171875 0zm7.826462 0l3.25 -4.21875l-0.015625 0.515625l-3.09375 -3.984375l1.171875 0l2.546875 3.296875l-0.453125 -0.015625l2.546875 -3.28125l1.140625 0l-3.125 4.015625l0.015625 -0.546875l3.28125 4.21875l-1.1875 0l-2.6875 -3.515625l0.421875 0.0625l-2.640625 3.453125l-1.171875 0zm7.826462 0l3.25 -4.21875l-0.015625 0.515625l-3.09375 -3.984375l1.171875 0l2.546875 3.296875l-0.453125 -0.015625l2.546875 -3.28125l1.140625 0l-3.125 4.015625l0.015625 -0.546875l3.28125 4.21875l-1.1875 0l-2.6875 -3.515625l0.421875 0.0625l-2.640625 3.453125l-1.171875 0zm7.826462 0l3.25 -4.21875l-0.015625 0.515625l-3.09375 -3.984375l1.171875 0l2.546875 3.296875l-0.453125 -0.015625l2.546875 -3.28125l1.140625 0l-3.125 4.015625l0.015625 -0.546875l3.28125 4.21875l-1.1875 0l-2.6875 -3.515625l0.421875 0.0625l-2.640625 3.453125l-1.171875 0zm7.826462 0l3.25 -4.21875l-0.015625 0.515625l-3.09375 -3.984375l1.171875 0l2.546875 3.296875l-0.453125 -0.015625l2.546875 -3.28125l1.140625 0l-3.125 4.015625l0.015625 -0.546875l3.28125 4.21875l-1.1875 0l-2.6875 -3.515625l0.421875 0.0625l-2.640625 3.453125l-1.171875 0zm7.826462 0l3.25 -4.21875l-0.015625 0.515625l-3.09375 -3.984375l1.171875 0l2.546875 3.296875l-0.453125 -0.015625l2.546875 -3.28125l1.140625 0l-3.125 4.015625l0.015625 -0.546875l3.28125 4.21875l-1.1875 0l-2.6875 -3.515625l0.421875 0.0625l-2.640625 3.453125l-1.171875 0zm7.826462 0l3.25 -4.21875l-0.015625 0.515625l-3.09375 -3.984375l1.171875 0l2.546875 3.296875l-0.453125 -0.015625l2.546875 -3.28125l1.140625 0l-3.125 4.015625l0.015625 -0.546875l3.28125 4.21875l-1.1875 0l-2.6875 -3.515625l0.421875 0.0625l-2.640625 3.453125l-1.171875 0zm7.826462 0l3.25 -4.21875l-0.015625 0.515625l-3.09375 -3.984375l1.171875 0l2.546875 3.296875l-0.453125 -0.015625l2.546875 -3.28125l1.140625 0l-3.125 4.015625l0.015625 -0.546875l3.28125 4.21875l-1.1875 0l-2.6875 -3.515625l0.421875 0.0625l-2.640625 3.453125l-1.171875 0zm7.826462 0l3.25 -4.21875l-0.015625 0.515625l-3.09375 -3.984375l1.171875 0l2.546875 3.296875l-0.453125 -0.015625l2.546875 -3.28125l1.140625 0l-3.125 4.015625l0.015625 -0.546875l3.28125 4.21875l-1.1875 0l-2.6875 -3.515625l0.421875 0.0625l-2.640625 3.453125l-1.171875 0zm7.826462 0l3.25 -4.21875l-0.015625 0.515625l-3.09375 -3.984375l1.171875 0l2.546875 3.296875l-0.453125 -0.015625l2.546875 -3.28125l1.140625 0l-3.125 4.015625l0.015625 -0.546875l3.28125 4.21875l-1.1875 0l-2.6875 -3.515625l0.421875 0.0625l-2.640625 3.453125l-1.171875 0zm12.122467 1.46875l-0.953125 0l-4.84375 -13.8125l0.953125 0l4.84375 13.8125zm5.0036163 -9.234375q0.9375 0 1.640625 0.359375q0.71875 0.359375 1.125 1.09375q0.40625 0.734375 0.40625 1.84375l0 4.46875l-1.046875 0l0 -4.375q0 -1.203125 -0.609375 -1.828125q-0.609375 -0.625 -1.703125 -0.625q-0.8125 0 -1.421875 0.328125q-0.609375 0.328125 -0.953125 0.953125q-0.328125 0.625 -0.328125 1.5l0 4.046875l-1.03125 0l0 -7.6875l1.0 0l0 2.109375l-0.171875 -0.40625q0.375 -0.828125 1.171875 -1.296875q0.8125 -0.484375 1.921875 -0.484375z" fill-rule="nonzero"/><path fill="#595959" d="m69.95413 184.9669l0 -0.75l5.4375 -6.8125l1.171875 0l-5.40625 6.8125l-0.5625 -0.1875l8.25 0l0 0.9375l-8.890625 0zm5.78125 2.703125l0 -2.703125l0.03125 -0.9375l0 -2.375l1.03125 0l0 6.015625l-1.0625 0z" fill-rule="nonzero"/><path fill="#595959" d="m70.90726 205.34814q-0.3125 0 -0.546875 -0.234375q-0.21875 -0.234375 -0.21875 -0.578125q0 -0.34375 0.21875 -0.5625q0.234375 -0.234375 0.546875 -0.234375q0.328125 0 0.546875 0.234375q0.234375 0.21875 0.234375 0.5625q0 0.34375 -0.234375 0.578125q-0.21875 0.234375 -0.546875 0.234375z" fill-rule="nonzero"/><path fill="#595959" d="m70.90726 222.94815q-0.3125 0 -0.546875 -0.234375q-0.21875 -0.234375 -0.21875 -0.578125q0 -0.34375 0.21875 -0.5625q0.234375 -0.234375 0.546875 -0.234375q0.328125 0 0.546875 0.234375q0.234375 0.21875 0.234375 0.5625q0 0.34375 -0.234375 0.578125q-0.21875 0.234375 -0.546875 0.234375z" fill-rule="nonzero"/><path fill="#595959" d="m70.90726 240.54814q-0.3125 0 -0.546875 -0.234375q-0.21875 -0.234375 -0.21875 -0.578125q0 -0.34375 0.21875 -0.5625q0.234375 -0.234375 0.546875 -0.234375q0.328125 0 0.546875 0.234375q0.234375 0.21875 0.234375 0.5625q0 0.34375 -0.234375 0.578125q-0.21875 0.234375 -0.546875 0.234375z" fill-rule="nonzero"/><path fill="#595959" d="m70.90726 258.14816q-0.3125 0 -0.546875 -0.234375q-0.21875 -0.234375 -0.21875 -0.578125q0 -0.34375 0.21875 -0.5625q0.234375 -0.234375 0.546875 -0.234375q0.328125 0 0.546875 0.234375q0.234375 0.21875 0.234375 0.5625q0 0.34375 -0.234375 0.578125q-0.21875 0.234375 -0.546875 0.234375z" fill-rule="nonzero"/><path fill="#595959" d="m70.90726 275.74817q-0.3125 0 -0.546875 -0.234375q-0.21875 -0.234375 -0.21875 -0.578125q0 -0.34375 0.21875 -0.5625q0.234375 -0.234375 0.546875 -0.234375q0.328125 0 0.546875 0.234375q0.234375 0.21875 0.234375 0.5625q0 0.34375 -0.234375 0.578125q-0.21875 0.234375 -0.546875 0.234375z" fill-rule="nonzero"/><path fill="#595959" d="m70.90726 293.34818q-0.3125 0 -0.546875 -0.234375q-0.21875 -0.234375 -0.21875 -0.578125q0 -0.34375 0.21875 -0.5625q0.234375 -0.234375 0.546875 -0.234375q0.328125 0 0.546875 0.234375q0.234375 0.21875 0.234375 0.5625q0 0.34375 -0.234375 0.578125q-0.21875 0.234375 -0.546875 0.234375z" fill-rule="nonzero"/><path fill="#595959" d="m70.90726 310.94818q-0.3125 0 -0.546875 -0.234375q-0.21875 -0.234375 -0.21875 -0.578125q0 -0.34375 0.21875 -0.5625q0.234375 -0.234375 0.546875 -0.234375q0.328125 0 0.546875 0.234375q0.234375 0.21875 0.234375 0.5625q0 0.34375 -0.234375 0.578125q-0.21875 0.234375 -0.546875 0.234375z" fill-rule="nonzero"/><path fill="#595959" d="m70.90726 328.5482q-0.3125 0 -0.546875 -0.234375q-0.21875 -0.234375 -0.21875 -0.578125q0 -0.34375 0.21875 -0.5625q0.234375 -0.234375 0.546875 -0.234375q0.328125 0 0.546875 0.234375q0.234375 0.21875 0.234375 0.5625q0 0.34375 -0.234375 0.578125q-0.21875 0.234375 -0.546875 0.234375z" fill-rule="nonzero"/><path fill="#000000" fill-opacity="0.0" d="m51.902885 69.62205l204.50394 0l0 48.472443l-204.50394 0z" fill-rule="evenodd"/><path fill="#595959" d="m67.26226 101.78705q-1.78125 0 -2.75 -0.953125q-0.953125 -0.96875 -0.953125 -2.71875l0 -11.84375l1.71875 0l0 11.75q0 1.09375 0.5625 1.703125q0.5625 0.59375 1.609375 0.59375q1.140625 0 1.875 -0.640625l0.609375 1.21875q-0.515625 0.453125 -1.21875 0.671875q-0.703125 0.21875 -1.453125 0.21875zm-5.953125 -11.3125l0 -1.40625l7.796875 0l0 1.40625l-7.796875 0zm16.616104 11.3125q-1.96875 0 -3.46875 -0.828125q-1.484375 -0.828125 -2.328125 -2.28125q-0.828125 -1.453125 -0.828125 -3.328125q0 -1.875 0.796875 -3.3125q0.8125 -1.4375 2.203125 -2.265625q1.40625 -0.828125 3.15625 -0.828125q1.78125 0 3.15625 0.8125q1.390625 0.796875 2.171875 2.25q0.796875 1.453125 0.796875 3.34375q0 0.125 -0.015625 0.265625q0 0.125 0 0.265625l-10.96875 0l0 -1.28125l10.046875 0l-0.671875 0.515625q0 -1.375 -0.59375 -2.4375q-0.578125 -1.078125 -1.59375 -1.671875q-1.0 -0.59375 -2.328125 -0.59375q-1.296875 0 -2.328125 0.59375q-1.03125 0.59375 -1.609375 1.6875q-0.5625 1.078125 -0.5625 2.46875l0 0.265625q0 1.4375 0.625 2.53125q0.640625 1.09375 1.78125 1.703125q1.140625 0.609375 2.609375 0.609375q1.140625 0 2.140625 -0.40625q1.0 -0.40625 1.71875 -1.25l0.953125 1.109375q-0.828125 1.0 -2.09375 1.53125q-1.265625 0.53125 -2.765625 0.53125zm6.854706 -0.125l5.328125 -6.90625l-0.015625 0.828125l-5.0625 -6.515625l1.90625 0l4.15625 5.390625l-0.71875 -0.015625l4.15625 -5.375l1.875 0l-5.125 6.59375l0.03125 -0.90625l5.375 6.90625l-1.9375 0l-4.390625 -5.765625l0.671875 0.109375l-4.328125 5.65625l-1.921875 0zm18.722214 0.125q-1.78125 0 -2.75 -0.953125q-0.953125 -0.96875 -0.953125 -2.71875l0 -11.84375l1.71875 0l0 11.75q0 1.09375 0.5625 1.703125q0.5625 0.59375 1.609375 0.59375q1.140625 0 1.875 -0.640625l0.609375 1.21875q-0.515625 0.453125 -1.21875 0.671875q-0.703125 0.21875 -1.453125 0.21875zm-5.953125 -11.3125l0 -1.40625l7.796875 0l0 1.40625l-7.796875 0zm11.657974 11.1875l0 -14.1875q0 -1.671875 0.984375 -2.703125q0.984375 -1.03125 2.84375 -1.03125q0.71875 0 1.390625 0.1875q0.671875 0.1875 1.125 0.59375l-0.578125 1.28125q-0.359375 -0.3125 -0.84375 -0.46875q-0.46875 -0.15625 -1.03125 -0.15625q-1.078125 0 -1.65625 0.609375q-0.578125 0.59375 -0.578125 1.765625l0 1.921875l0.0625 0.78125l0 11.40625l-1.71875 0zm-2.25 -11.1875l0 -1.40625l7.796875 0l0 1.40625l-7.796875 0zm10.109375 11.1875l0 -12.59375l1.703125 0l0 12.59375l-1.703125 0zm0.875 -15.390625q-0.53125 0 -0.890625 -0.359375q-0.359375 -0.359375 -0.359375 -0.859375q0 -0.5 0.359375 -0.84375q0.359375 -0.359375 0.890625 -0.359375q0.53125 0 0.890625 0.34375q0.359375 0.328125 0.359375 0.84375q0 0.515625 -0.359375 0.875q-0.34375 0.359375 -0.890625 0.359375zm5.6003265 15.390625l0 -17.8125l1.703125 0l0 17.8125l-1.703125 0zm11.815361 0.125q-1.96875 0 -3.46875 -0.828125q-1.484375 -0.828125 -2.328125 -2.28125q-0.828125 -1.453125 -0.828125 -3.328125q0 -1.875 0.796875 -3.3125q0.8125 -1.4375 2.203125 -2.265625q1.40625 -0.828125 3.15625 -0.828125q1.78125 0 3.15625 0.8125q1.390625 0.796875 2.171875 2.25q0.796875 1.453125 0.796875 3.34375q0 0.125 -0.015625 0.265625q0 0.125 0 0.265625l-10.96875 0l0 -1.28125l10.046875 0l-0.671875 0.515625q0 -1.375 -0.59375 -2.4375q-0.578125 -1.078125 -1.59375 -1.671875q-1.0 -0.59375 -2.328125 -0.59375q-1.296875 0 -2.328125 0.59375q-1.03125 0.59375 -1.609375 1.6875q-0.5625 1.078125 -0.5625 2.46875l0 0.265625q0 1.4375 0.625 2.53125q0.640625 1.09375 1.78125 1.703125q1.140625 0.609375 2.609375 0.609375q1.140625 0 2.140625 -0.40625q1.0 -0.40625 1.71875 -1.25l0.953125 1.109375q-0.828125 1.0 -2.09375 1.53125q-1.265625 0.53125 -2.765625 0.53125zm9.308456 0q-0.53125 0 -0.90625 -0.375q-0.375 -0.390625 -0.375 -0.953125q0 -0.578125 0.375 -0.9375q0.375 -0.359375 0.90625 -0.359375q0.53125 0 0.890625 0.359375q0.375 0.359375 0.375 0.9375q0 0.5625 -0.375 0.953125q-0.359375 0.375 -0.890625 0.375zm8.708481 0q-1.78125 0 -2.75 -0.953125q-0.953125 -0.96875 -0.953125 -2.71875l0 -11.84375l1.71875 0l0 11.75q0 1.09375 0.5625 1.703125q0.5625 0.59375 1.609375 0.59375q1.140625 0 1.875 -0.640625l0.609375 1.21875q-0.515625 0.453125 -1.21875 0.671875q-0.703125 0.21875 -1.453125 0.21875zm-5.953125 -11.3125l0 -1.40625l7.796875 0l0 1.40625l-7.796875 0zm9.790848 11.1875l5.328125 -6.90625l-0.015625 0.828125l-5.0625 -6.515625l1.90625 0l4.15625 5.390625l-0.71875 -0.015625l4.15625 -5.375l1.875 0l-5.125 6.59375l0.03125 -0.90625l5.375 6.90625l-1.9375 0l-4.390625 -5.765625l0.671875 0.109375l-4.328125 5.65625l-1.921875 0zm18.722214 0.125q-1.78125 0 -2.75 -0.953125q-0.953125 -0.96875 -0.953125 -2.71875l0 -11.84375l1.71875 0l0 11.75q0 1.09375 0.5625 1.703125q0.5625 0.59375 1.609375 0.59375q1.140625 0 1.875 -0.640625l0.609375 1.21875q-0.515625 0.453125 -1.21875 0.671875q-0.703125 0.21875 -1.453125 0.21875zm-5.953125 -11.3125l0 -1.40625l7.796875 0l0 1.40625l-7.796875 0z" fill-rule="nonzero"/><path fill="#000000" fill-opacity="0.0" d="m363.9029 165.62204l204.5039 0l0 48.472443l-204.5039 0z" fill-rule="evenodd"/><path fill="#595959" d="m378.66852 197.78705q-1.5625 0 -2.953125 -0.4375q-1.390625 -0.453125 -2.1875 -1.125l0.765625 -1.34375q0.765625 0.578125 1.96875 1.0q1.203125 0.40625 2.515625 0.40625q1.8125 0 2.59375 -0.5625q0.796875 -0.5625 0.796875 -1.5q0 -0.6875 -0.453125 -1.078125q-0.4375 -0.40625 -1.15625 -0.609375q-0.71875 -0.203125 -1.609375 -0.34375q-0.890625 -0.140625 -1.765625 -0.328125q-0.875 -0.203125 -1.59375 -0.578125q-0.71875 -0.375 -1.171875 -1.015625q-0.4375 -0.65625 -0.4375 -1.734375q0 -1.03125 0.578125 -1.84375q0.578125 -0.8125 1.6875 -1.28125q1.125 -0.46875 2.734375 -0.46875q1.21875 0 2.4375 0.328125q1.234375 0.3125 2.015625 0.84375l-0.734375 1.375q-0.84375 -0.578125 -1.8125 -0.828125q-0.953125 -0.25 -1.90625 -0.25q-1.703125 0 -2.515625 0.59375q-0.796875 0.578125 -0.796875 1.484375q0 0.71875 0.4375 1.140625q0.4375 0.40625 1.171875 0.640625q0.734375 0.21875 1.609375 0.359375q0.875 0.140625 1.75 0.34375q0.875 0.203125 1.609375 0.5625q0.734375 0.34375 1.171875 0.984375q0.453125 0.625 0.453125 1.65625q0 1.109375 -0.609375 1.921875q-0.609375 0.796875 -1.78125 1.25q-1.15625 0.4375 -2.8125 0.4375zm12.305695 0q-1.78125 0 -2.75 -0.953125q-0.953125 -0.96875 -0.953125 -2.71875l0 -11.84375l1.71875 0l0 11.75q0 1.09375 0.5625 1.703125q0.5625 0.59375 1.609375 0.59375q1.140625 0 1.875 -0.640625l0.609375 1.21875q-0.515625 0.453125 -1.21875 0.671875q-0.703125 0.21875 -1.453125 0.21875zm-5.953125 -11.3125l0 -1.40625l7.796875 0l0 1.40625l-7.796875 0zm16.39737 11.3125q-1.828125 0 -3.28125 -0.828125q-1.453125 -0.828125 -2.296875 -2.28125q-0.828125 -1.453125 -0.828125 -3.328125q0 -1.890625 0.828125 -3.328125q0.84375 -1.453125 2.28125 -2.265625q1.4375 -0.8125 3.296875 -0.8125q1.875 0 3.3125 0.8125q1.453125 0.8125 2.28125 2.265625q0.828125 1.4375 0.828125 3.328125q0 1.875 -0.828125 3.328125q-0.828125 1.453125 -2.296875 2.28125q-1.453125 0.828125 -3.296875 0.828125zm0 -1.515625q1.359375 0 2.40625 -0.609375q1.0625 -0.609375 1.671875 -1.71875q0.625 -1.125 0.625 -2.59375q0 -1.484375 -0.625 -2.59375q-0.609375 -1.109375 -1.671875 -1.71875q-1.046875 -0.609375 -2.390625 -0.609375q-1.34375 0 -2.40625 0.609375q-1.046875 0.609375 -1.671875 1.71875q-0.625 1.109375 -0.625 2.59375q0 1.46875 0.625 2.59375q0.625 1.109375 1.671875 1.71875q1.0625 0.609375 2.390625 0.609375zm15.141693 1.515625q-1.875 0 -3.359375 -0.828125q-1.46875 -0.828125 -2.3125 -2.28125q-0.828125 -1.453125 -0.828125 -3.328125q0 -1.890625 0.828125 -3.328125q0.84375 -1.453125 2.3125 -2.265625q1.484375 -0.8125 3.359375 -0.8125q1.609375 0 2.90625 0.625q1.296875 0.625 2.03125 1.875l-1.265625 0.859375q-0.65625 -0.953125 -1.609375 -1.40625q-0.953125 -0.46875 -2.09375 -0.46875q-1.34375 0 -2.421875 0.609375q-1.078125 0.609375 -1.703125 1.71875q-0.625 1.109375 -0.625 2.59375q0 1.484375 0.625 2.59375q0.625 1.109375 1.703125 1.71875q1.078125 0.609375 2.421875 0.609375q1.140625 0 2.09375 -0.453125q0.953125 -0.453125 1.609375 -1.390625l1.265625 0.859375q-0.734375 1.21875 -2.03125 1.859375q-1.296875 0.640625 -2.90625 0.640625zm9.429352 -3.390625l0.046875 -2.1875l7.84375 -7.140625l2.09375 0l-5.546875 5.296875l-0.953125 0.8125l-3.484375 3.21875zm-1.34375 3.265625l0 -17.8125l1.703125 0l0 17.8125l-1.703125 0zm9.765625 0l-5.25 -6.546875l1.09375 -1.328125l6.25 7.875l-2.09375 0z" fill-rule="nonzero"/><path fill="#000000" fill-opacity="0.0" d="m363.9029 285.62204l204.5039 0l0 48.472443l-204.5039 0z" fill-rule="evenodd"/><path fill="#595959" d="m375.2779 317.66205l0 -17.8125l1.703125 0l0 17.8125l-1.703125 0zm6.455963 0l0 -12.59375l1.703125 0l0 12.59375l-1.703125 0zm0.875 -15.390625q-0.53125 0 -0.890625 -0.359375q-0.359375 -0.359375 -0.359375 -0.859375q0 -0.5 0.359375 -0.84375q0.359375 -0.359375 0.890625 -0.359375q0.53125 0 0.890625 0.34375q0.359375 0.328125 0.359375 0.84375q0 0.515625 -0.359375 0.875q-0.34375 0.359375 -0.890625 0.359375zm12.018494 2.671875q1.53125 0 2.6875 0.59375q1.171875 0.578125 1.828125 1.78125q0.65625 1.203125 0.65625 3.03125l0 7.3125l-1.703125 0l0 -7.15625q0 -1.984375 -1.0 -3.0q-0.984375 -1.03125 -2.78125 -1.03125q-1.34375 0 -2.34375 0.546875q-1.0 0.53125 -1.546875 1.5625q-0.53125 1.015625 -0.53125 2.453125l0 6.625l-1.703125 0l0 -12.59375l1.640625 0l0 3.453125l-0.265625 -0.65625q0.59375 -1.359375 1.90625 -2.140625q1.328125 -0.78125 3.15625 -0.78125zm15.145813 12.84375q-1.96875 0 -3.46875 -0.828125q-1.484375 -0.828125 -2.328125 -2.28125q-0.828125 -1.453125 -0.828125 -3.328125q0 -1.875 0.796875 -3.3125q0.8125 -1.4375 2.203125 -2.265625q1.40625 -0.828125 3.15625 -0.828125q1.78125 0 3.15625 0.8125q1.390625 0.796875 2.171875 2.25q0.796875 1.453125 0.796875 3.34375q0 0.125 -0.015625 0.265625q0 0.125 0 0.265625l-10.96875 0l0 -1.28125l10.046875 0l-0.671875 0.515625q0 -1.375 -0.59375 -2.4375q-0.578125 -1.078125 -1.59375 -1.671875q-1.0 -0.59375 -2.328125 -0.59375q-1.296875 0 -2.328125 0.59375q-1.03125 0.59375 -1.609375 1.6875q-0.5625 1.078125 -0.5625 2.46875l0 0.265625q0 1.4375 0.625 2.53125q0.640625 1.09375 1.78125 1.703125q1.140625 0.609375 2.609375 0.609375q1.140625 0 2.140625 -0.40625q1.0 -0.40625 1.71875 -1.25l0.953125 1.109375q-0.828125 1.0 -2.09375 1.53125q-1.265625 0.53125 -2.765625 0.53125zm6.617584 1.03125l0 -1.15625l12.0 0l0 1.15625l-12.0 0zm14.6562195 -1.15625l0 -14.1875q0 -1.671875 0.984375 -2.703125q0.984375 -1.03125 2.84375 -1.03125q0.71875 0 1.390625 0.1875q0.671875 0.1875 1.125 0.59375l-0.578125 1.28125q-0.359375 -0.3125 -0.84375 -0.46875q-0.46875 -0.15625 -1.03125 -0.15625q-1.078125 0 -1.65625 0.609375q-0.578125 0.59375 -0.578125 1.765625l0 1.921875l0.0625 0.78125l0 11.40625l-1.71875 0zm-2.25 -11.1875l0 -1.40625l7.796875 0l0 1.40625l-7.796875 0zm10.104736 11.1875l0 -12.59375l1.640625 0l0 3.421875l-0.171875 -0.59375q0.53125 -1.4375 1.765625 -2.1875q1.25 -0.765625 3.109375 -0.765625l0 1.65625q-0.109375 0 -0.203125 -0.015625q-0.09375 -0.015625 -0.1875 -0.015625q-1.984375 0 -3.125 1.21875q-1.125 1.21875 -1.125 3.4375l0 6.4375l-1.703125 0zm6.960968 1.15625l0 -1.15625l12.0 0l0 1.15625l-12.0 0zm14.3749695 -1.15625l0 -12.59375l1.640625 0l0 3.421875l-0.171875 -0.59375q0.53125 -1.4375 1.765625 -2.1875q1.25 -0.765625 3.109375 -0.765625l0 1.65625q-0.109375 0 -0.203125 -0.015625q-0.09375 -0.015625 -0.1875 -0.015625q-1.984375 0 -3.125 1.21875q-1.125 1.21875 -1.125 3.4375l0 6.4375l-1.703125 0zm14.671356 0.125q-1.96875 0 -3.46875 -0.828125q-1.484375 -0.828125 -2.328125 -2.28125q-0.828125 -1.453125 -0.828125 -3.328125q0 -1.875 0.796875 -3.3125q0.8125 -1.4375 2.203125 -2.265625q1.40625 -0.828125 3.15625 -0.828125q1.78125 0 3.15625 0.8125q1.390625 0.796875 2.171875 2.25q0.796875 1.453125 0.796875 3.34375q0 0.125 -0.015625 0.265625q0 0.125 0 0.265625l-10.96875 0l0 -1.28125l10.046875 0l-0.671875 0.515625q0 -1.375 -0.59375 -2.4375q-0.578125 -1.078125 -1.59375 -1.671875q-1.0 -0.59375 -2.328125 -0.59375q-1.296875 0 -2.328125 0.59375q-1.03125 0.59375 -1.609375 1.6875q-0.5625 1.078125 -0.5625 2.46875l0 0.265625q0 1.4375 0.625 2.53125q0.640625 1.09375 1.78125 1.703125q1.140625 0.609375 2.609375 0.609375q1.140625 0 2.140625 -0.40625q1.0 -0.40625 1.71875 -1.25l0.953125 1.109375q-0.828125 1.0 -2.09375 1.53125q-1.265625 0.53125 -2.765625 0.53125zm16.667206 -0.125l0 -2.78125l-0.0625 -0.453125l0 -4.65625q0 -1.609375 -0.90625 -2.46875q-0.890625 -0.875 -2.671875 -0.875q-1.21875 0 -2.328125 0.40625q-1.109375 0.40625 -1.875 1.078125l-0.765625 -1.265625q0.953125 -0.8125 2.296875 -1.25q1.34375 -0.453125 2.84375 -0.453125q2.4375 0 3.765625 1.21875q1.34375 1.203125 1.34375 3.671875l0 7.828125l-1.640625 0zm-4.34375 0.125q-1.40625 0 -2.453125 -0.46875q-1.046875 -0.46875 -1.609375 -1.296875q-0.546875 -0.828125 -0.546875 -1.90625q0 -0.984375 0.46875 -1.78125q0.46875 -0.8125 1.53125 -1.296875q1.078125 -0.5 2.875 -0.5l4.34375 0l0 1.265625l-4.296875 0q-1.8125 0 -2.53125 0.65625q-0.703125 0.640625 -0.703125 1.609375q0 1.078125 0.84375 1.734375q0.84375 0.640625 2.34375 0.640625q1.4375 0 2.484375 -0.65625q1.046875 -0.671875 1.53125 -1.921875l0.375 1.1875q-0.46875 1.234375 -1.65625 1.984375q-1.1875 0.75 -3.0 0.75zm15.628723 0q-1.796875 0 -3.234375 -0.8125q-1.421875 -0.828125 -2.234375 -2.28125q-0.8125 -1.453125 -0.8125 -3.34375q0 -1.921875 0.8125 -3.359375q0.8125 -1.4375 2.234375 -2.234375q1.4375 -0.8125 3.234375 -0.8125q1.65625 0 2.953125 0.75q1.3125 0.734375 2.09375 2.171875q0.78125 1.421875 0.78125 3.484375q0 2.046875 -0.765625 3.484375q-0.765625 1.4375 -2.078125 2.203125q-1.296875 0.75 -2.984375 0.75zm0.125 -1.515625q1.34375 0 2.40625 -0.609375q1.0625 -0.609375 1.671875 -1.71875q0.625 -1.125 0.625 -2.59375q0 -1.484375 -0.625 -2.59375q-0.609375 -1.109375 -1.671875 -1.71875q-1.0625 -0.609375 -2.40625 -0.609375q-1.328125 0 -2.390625 0.609375q-1.046875 0.609375 -1.671875 1.71875q-0.625 1.109375 -0.625 2.59375q0 1.46875 0.625 2.59375q0.625 1.109375 1.671875 1.71875q1.0625 0.609375 2.390625 0.609375zm4.75 1.390625l0 -3.796875l0.171875 -2.546875l-0.25 -2.53125l0 -8.9375l1.703125 0l0 17.8125l-1.625 0z" fill-rule="nonzero"/><path fill="#eeeeee" d="m375.2861 205.63518l370.3622 0l0 44.976364l-370.3622 0z" fill-rule="evenodd"/><path stroke="#595959" stroke-width="1.0" stroke-linejoin="round" stroke-linecap="butt" d="m375.2861 205.63518l370.3622 0l0 44.976364l-370.3622 0z" fill-rule="evenodd"/><path fill="#eeeeee" d="m375.2861 325.63516l370.3622 0l0 44.97638l-370.3622 0z" fill-rule="evenodd"/><path stroke="#595959" stroke-width="1.0" stroke-linejoin="round" stroke-linecap="butt" d="m375.2861 325.63516l370.3622 0l0 44.97638l-370.3622 0z" fill-rule="evenodd"/><path fill="#000000" fill-opacity="0.0" d="m363.9029 109.62205l241.88977 0l0 48.472435l-241.88977 0z" fill-rule="evenodd"/><path fill="#595959" d="m375.63727 141.66205l0 -16.796875l7.25 0q2.8125 0 4.359375 1.125q1.546875 1.125 1.546875 3.1875q0 1.375 -0.640625 2.3125q-0.640625 0.9375 -1.734375 1.421875q-1.078125 0.46875 -2.375 0.46875l0.40625 -0.578125q1.609375 0 2.765625 0.5q1.171875 0.484375 1.8125 1.46875q0.65625 0.96875 0.65625 2.40625q0 2.125 -1.578125 3.3125q-1.578125 1.171875 -4.734375 1.171875l-7.734375 0zm1.78125 -1.46875l5.921875 0q2.203125 0 3.375 -0.75q1.1875 -0.75 1.1875 -2.40625q0 -1.640625 -1.1875 -2.390625q-1.171875 -0.765625 -3.375 -0.765625l-6.125 0l0 -1.453125l5.546875 0q2.015625 0 3.125 -0.765625q1.125 -0.78125 1.125 -2.28125q0 -1.546875 -1.125 -2.296875q-1.109375 -0.765625 -3.125 -0.765625l-5.34375 0l0 13.875zm23.080322 1.609375q-3.21875 0 -5.0625 -1.84375q-1.84375 -1.84375 -1.84375 -5.46875l0 -9.625l1.78125 0l0 9.546875q0 2.984375 1.34375 4.40625q1.34375 1.40625 3.78125 1.40625q2.46875 0 3.8125 -1.40625q1.34375 -1.421875 1.34375 -4.40625l0 -9.546875l1.734375 0l0 9.625q0 3.625 -1.84375 5.46875q-1.828125 1.84375 -5.046875 1.84375zm13.820435 -8.796875l8.890625 0l0 1.53125l-8.890625 0l0 -1.53125zm0.203125 8.65625l-1.78125 0l0 -16.796875l11.515625 0l0 1.53125l-9.734375 0l0 15.265625zm14.988831 -8.65625l8.890625 0l0 1.53125l-8.890625 0l0 -1.53125zm0.203125 8.65625l-1.78125 0l0 -16.796875l11.515625 0l0 1.53125l-9.734375 0l0 15.265625zm14.988831 -9.28125l8.890625 0l0 1.5l-8.890625 0l0 -1.5zm0.203125 7.75l10.09375 0l0 1.53125l-11.875 0l0 -16.796875l11.515625 0l0 1.53125l-9.734375 0l0 13.734375zm14.274719 1.53125l0 -16.796875l6.296875 0q2.125 0 3.65625 0.6875q1.546875 0.671875 2.375 1.96875q0.828125 1.28125 0.828125 3.09375q0 1.78125 -0.828125 3.0625q-0.828125 1.28125 -2.375 1.96875q-1.53125 0.6875 -3.65625 0.6875l-5.3125 0l0.796875 -0.8125l0 6.140625l-1.78125 0zm11.46875 0l-4.3125 -6.09375l1.921875 0l4.34375 6.09375l-1.953125 0zm-9.6875 -6.0l-0.796875 -0.84375l5.25 0q2.53125 0 3.828125 -1.09375q1.3125 -1.109375 1.3125 -3.109375q0 -2.015625 -1.3125 -3.109375q-1.296875 -1.109375 -3.828125 -1.109375l-5.25 0l0.796875 -0.84375l0 10.109375zm13.268311 7.15625l0 -1.15625l12.0 0l0 1.15625l-12.0 0zm19.85498 -1.015625q-1.875 0 -3.59375 -0.609375q-1.71875 -0.609375 -2.65625 -1.578125l0.703125 -1.359375q0.890625 0.859375 2.390625 1.453125q1.5 0.578125 3.15625 0.578125q1.578125 0 2.5625 -0.390625q1.0 -0.390625 1.46875 -1.0625q0.46875 -0.671875 0.46875 -1.484375q0 -0.984375 -0.5625 -1.578125q-0.5625 -0.609375 -1.484375 -0.953125q-0.90625 -0.359375 -2.015625 -0.625q-1.09375 -0.265625 -2.203125 -0.5625q-1.09375 -0.296875 -2.03125 -0.796875q-0.921875 -0.515625 -1.484375 -1.328125q-0.5625 -0.828125 -0.5625 -2.1875q0 -1.234375 0.65625 -2.28125q0.671875 -1.046875 2.03125 -1.671875q1.375 -0.640625 3.515625 -0.640625q1.40625 0 2.796875 0.390625q1.390625 0.390625 2.40625 1.09375l-0.59375 1.40625q-1.09375 -0.71875 -2.3125 -1.046875q-1.203125 -0.34375 -2.328125 -0.34375q-1.515625 0 -2.5 0.421875q-0.984375 0.40625 -1.453125 1.09375q-0.46875 0.671875 -0.46875 1.53125q0 0.984375 0.5625 1.59375q0.578125 0.59375 1.5 0.9375q0.921875 0.328125 2.015625 0.59375q1.109375 0.265625 2.203125 0.578125q1.09375 0.3125 2.015625 0.8125q0.921875 0.484375 1.484375 1.296875q0.5625 0.8125 0.5625 2.140625q0 1.21875 -0.671875 2.265625q-0.671875 1.046875 -2.046875 1.6875q-1.375 0.625 -3.53125 0.625zm10.119324 -0.140625l0 -16.796875l1.78125 0l0 16.796875l-1.78125 0zm5.591736 0l0 -1.21875l11.671875 -14.71875l0.1875 0.671875l-11.6875 0l0 -1.53125l13.3125 0l0 1.21875l-11.640625 14.71875l-0.203125 -0.671875l12.140625 0l0 1.53125l-13.78125 0zm18.858337 -9.28125l8.890625 0l0 1.5l-8.890625 0l0 -1.5zm0.203125 7.75l10.09375 0l0 1.53125l-11.875 0l0 -16.796875l11.515625 0l0 1.53125l-9.734375 0l0 13.734375zm19.515808 -8.9375l0 -1.40625l10.4375 0l0 1.40625l-10.4375 0zm0 5.546875l0 -1.421875l10.4375 0l0 1.421875l-10.4375 0zm19.353577 0.5l0 -1.234375l8.90625 -11.140625l1.921875 0l-8.828125 11.140625l-0.9375 -0.296875l13.515625 0l0 1.53125l-14.578125 0zm9.484375 4.421875l0 -4.421875l0.046875 -1.53125l0 -3.890625l1.6875 0l0 9.84375l-1.734375 0z" fill-rule="nonzero"/><path fill="#000000" fill-opacity="0.0" d="m375.2861 329.54068l201.00784 0l0 37.165344l-201.00784 0z" fill-rule="evenodd"/><path fill="#ff0000" d="m390.55173 352.6207l0 -1.703125l-0.03125 -0.28125l0 -2.84375q0 -0.96875 -0.5625 -1.5q-0.546875 -0.53125 -1.625 -0.53125q-0.75 0 -1.421875 0.25q-0.671875 0.25 -1.140625 0.65625l-0.46875 -0.78125q0.578125 -0.484375 1.390625 -0.75q0.828125 -0.28125 1.734375 -0.28125q1.5 0 2.3125 0.75q0.8125 0.734375 0.8125 2.234375l0 4.78125l-1.0 0zm-2.640625 0.078125q-0.875 0 -1.515625 -0.28125q-0.625 -0.296875 -0.96875 -0.796875q-0.328125 -0.515625 -0.328125 -1.171875q0 -0.59375 0.28125 -1.078125q0.28125 -0.5 0.9375 -0.796875q0.65625 -0.3125 1.75 -0.3125l2.65625 0l0 0.78125l-2.625 0q-1.109375 0 -1.546875 0.40625q-0.4375 0.390625 -0.4375 0.96875q0 0.671875 0.515625 1.0625q0.515625 0.390625 1.4375 0.390625q0.875 0 1.515625 -0.390625q0.640625 -0.40625 0.9375 -1.171875l0.234375 0.71875q-0.296875 0.765625 -1.03125 1.21875q-0.71875 0.453125 -1.8125 0.453125zm11.287842 -0.078125l0 -1.703125l-0.03125 -0.28125l0 -2.84375q0 -0.96875 -0.5625 -1.5q-0.546875 -0.53125 -1.625 -0.53125q-0.75 0 -1.421875 0.25q-0.671875 0.25 -1.140625 0.65625l-0.46875 -0.78125q0.578125 -0.484375 1.390625 -0.75q0.828125 -0.28125 1.734375 -0.28125q1.5 0 2.3125 0.75q0.8125 0.734375 0.8125 2.234375l0 4.78125l-1.0 0zm-2.640625 0.078125q-0.875 0 -1.515625 -0.28125q-0.625 -0.296875 -0.96875 -0.796875q-0.328125 -0.515625 -0.328125 -1.171875q0 -0.59375 0.28125 -1.078125q0.28125 -0.5 0.9375 -0.796875q0.65625 -0.3125 1.75 -0.3125l2.65625 0l0 0.78125l-2.625 0q-1.109375 0 -1.546875 0.40625q-0.4375 0.390625 -0.4375 0.96875q0 0.671875 0.515625 1.0625q0.515625 0.390625 1.4375 0.390625q0.875 0 1.515625 -0.390625q0.640625 -0.40625 0.9375 -1.171875l0.234375 0.71875q-0.296875 0.765625 -1.03125 1.21875q-0.71875 0.453125 -1.8125 0.453125zm11.287842 -0.078125l0 -1.703125l-0.03125 -0.28125l0 -2.84375q0 -0.96875 -0.5625 -1.5q-0.546875 -0.53125 -1.625 -0.53125q-0.75 0 -1.421875 0.25q-0.671875 0.25 -1.140625 0.65625l-0.46875 -0.78125q0.578125 -0.484375 1.390625 -0.75q0.828125 -0.28125 1.734375 -0.28125q1.5 0 2.3125 0.75q0.8125 0.734375 0.8125 2.234375l0 4.78125l-1.0 0zm-2.640625 0.078125q-0.875 0 -1.515625 -0.28125q-0.625 -0.296875 -0.96875 -0.796875q-0.328125 -0.515625 -0.328125 -1.171875q0 -0.59375 0.28125 -1.078125q0.28125 -0.5 0.9375 -0.796875q0.65625 -0.3125 1.75 -0.3125l2.65625 0l0 0.78125l-2.625 0q-1.109375 0 -1.546875 0.40625q-0.4375 0.390625 -0.4375 0.96875q0 0.671875 0.515625 1.0625q0.515625 0.390625 1.4375 0.390625q0.875 0 1.515625 -0.390625q0.640625 -0.40625 0.9375 -1.171875l0.234375 0.71875q-0.296875 0.765625 -1.03125 1.21875q-0.71875 0.453125 -1.8125 0.453125zm10.444092 0q-1.015625 0 -1.828125 -0.453125q-0.796875 -0.46875 -1.265625 -1.34375q-0.46875 -0.890625 -0.46875 -2.140625q0 -1.25 0.46875 -2.125q0.484375 -0.875 1.28125 -1.328125q0.8125 -0.453125 1.8125 -0.453125q1.09375 0 1.96875 0.5q0.875 0.484375 1.375 1.359375q0.5 0.875 0.5 2.046875q0 1.15625 -0.5 2.046875q-0.5 0.890625 -1.375 1.390625q-0.875 0.5 -1.96875 0.5zm-3.96875 -0.078125l0 -10.875l1.03125 0l0 5.453125l-0.140625 1.546875l0.109375 1.5625l0 2.3125l-1.0 0zm3.890625 -0.84375q0.828125 0 1.46875 -0.375q0.640625 -0.375 1.015625 -1.046875q0.390625 -0.6875 0.390625 -1.59375q0 -0.90625 -0.390625 -1.578125q-0.375 -0.671875 -1.015625 -1.046875q-0.640625 -0.375 -1.46875 -0.375q-0.8125 0 -1.46875 0.375q-0.65625 0.375 -1.03125 1.046875q-0.359375 0.671875 -0.359375 1.578125q0 0.90625 0.359375 1.59375q0.375 0.671875 1.03125 1.046875q0.65625 0.375 1.46875 0.375z" fill-rule="nonzero"/><path fill="#000000" fill-opacity="0.0" d="m246.68767 216.46982l128.59843 131.65353" fill-rule="evenodd"/><path stroke="#595959" stroke-width="1.0" stroke-linejoin="round" stroke-linecap="butt" d="m246.68767 216.46982l124.40587 127.36139" fill-rule="evenodd"/><path fill="#595959" stroke="#595959" stroke-width="1.0" stroke-linecap="butt" d="m369.91196 344.98538l4.3526306 2.0921936l-1.9894714 -4.4005127z" fill-rule="evenodd"/><path fill="#000000" fill-opacity="0.0" d="m560.46716 325.63516l0 -75.02362" fill-rule="evenodd"/><path stroke="#595959" stroke-width="1.0" stroke-linejoin="round" stroke-linecap="butt" d="m560.46716 325.63516l0 -69.02362" fill-rule="evenodd"/><path fill="#595959" stroke="#595959" stroke-width="1.0" stroke-linecap="butt" d="m562.1189 256.61154l-1.6517334 -4.538086l-1.6517334 4.538086z" fill-rule="evenodd"/><path fill="#000000" fill-opacity="0.0" d="m375.2861 209.54068l201.00784 0l0 37.16536l-201.00784 0z" fill-rule="evenodd"/><path fill="#ff0000" d="m390.55173 232.62068l0 -1.703125l-0.03125 -0.28125l0 -2.84375q0 -0.96875 -0.5625 -1.5q-0.546875 -0.53125 -1.625 -0.53125q-0.75 0 -1.421875 0.25q-0.671875 0.25 -1.140625 0.65625l-0.46875 -0.78125q0.578125 -0.484375 1.390625 -0.75q0.828125 -0.28125 1.734375 -0.28125q1.5 0 2.3125 0.75q0.8125 0.734375 0.8125 2.234375l0 4.78125l-1.0 0zm-2.640625 0.078125q-0.875 0 -1.515625 -0.28125q-0.625 -0.296875 -0.96875 -0.796875q-0.328125 -0.515625 -0.328125 -1.171875q0 -0.59375 0.28125 -1.078125q0.28125 -0.5 0.9375 -0.796875q0.65625 -0.3125 1.75 -0.3125l2.65625 0l0 0.78125l-2.625 0q-1.109375 0 -1.546875 0.40625q-0.4375 0.390625 -0.4375 0.96875q0 0.671875 0.515625 1.0625q0.515625 0.390625 1.4375 0.390625q0.875 0 1.515625 -0.390625q0.640625 -0.40625 0.9375 -1.171875l0.234375 0.71875q-0.296875 0.765625 -1.03125 1.21875q-0.71875 0.453125 -1.8125 0.453125zm11.287842 -0.078125l0 -1.703125l-0.03125 -0.28125l0 -2.84375q0 -0.96875 -0.5625 -1.5q-0.546875 -0.53125 -1.625 -0.53125q-0.75 0 -1.421875 0.25q-0.671875 0.25 -1.140625 0.65625l-0.46875 -0.78125q0.578125 -0.484375 1.390625 -0.75q0.828125 -0.28125 1.734375 -0.28125q1.5 0 2.3125 0.75q0.8125 0.734375 0.8125 2.234375l0 4.78125l-1.0 0zm-2.640625 0.078125q-0.875 0 -1.515625 -0.28125q-0.625 -0.296875 -0.96875 -0.796875q-0.328125 -0.515625 -0.328125 -1.171875q0 -0.59375 0.28125 -1.078125q0.28125 -0.5 0.9375 -0.796875q0.65625 -0.3125 1.75 -0.3125l2.65625 0l0 0.78125l-2.625 0q-1.109375 0 -1.546875 0.40625q-0.4375 0.390625 -0.4375 0.96875q0 0.671875 0.515625 1.0625q0.515625 0.390625 1.4375 0.390625q0.875 0 1.515625 -0.390625q0.640625 -0.40625 0.9375 -1.171875l0.234375 0.71875q-0.296875 0.765625 -1.03125 1.21875q-0.71875 0.453125 -1.8125 0.453125zm11.287842 -0.078125l0 -1.703125l-0.03125 -0.28125l0 -2.84375q0 -0.96875 -0.5625 -1.5q-0.546875 -0.53125 -1.625 -0.53125q-0.75 0 -1.421875 0.25q-0.671875 0.25 -1.140625 0.65625l-0.46875 -0.78125q0.578125 -0.484375 1.390625 -0.75q0.828125 -0.28125 1.734375 -0.28125q1.5 0 2.3125 0.75q0.8125 0.734375 0.8125 2.234375l0 4.78125l-1.0 0zm-2.640625 0.078125q-0.875 0 -1.515625 -0.28125q-0.625 -0.296875 -0.96875 -0.796875q-0.328125 -0.515625 -0.328125 -1.171875q0 -0.59375 0.28125 -1.078125q0.28125 -0.5 0.9375 -0.796875q0.65625 -0.3125 1.75 -0.3125l2.65625 0l0 0.78125l-2.625 0q-1.109375 0 -1.546875 0.40625q-0.4375 0.390625 -0.4375 0.96875q0 0.671875 0.515625 1.0625q0.515625 0.390625 1.4375 0.390625q0.875 0 1.515625 -0.390625q0.640625 -0.40625 0.9375 -1.171875l0.234375 0.71875q-0.296875 0.765625 -1.03125 1.21875q-0.71875 0.453125 -1.8125 0.453125zm10.444092 0q-1.015625 0 -1.828125 -0.453125q-0.796875 -0.46875 -1.265625 -1.34375q-0.46875 -0.890625 -0.46875 -2.140625q0 -1.25 0.46875 -2.125q0.484375 -0.875 1.28125 -1.328125q0.8125 -0.453125 1.8125 -0.453125q1.09375 0 1.96875 0.5q0.875 0.484375 1.375 1.359375q0.5 0.875 0.5 2.046875q0 1.15625 -0.5 2.046875q-0.5 0.890625 -1.375 1.390625q-0.875 0.5 -1.96875 0.5zm-3.96875 -0.078125l0 -10.875l1.03125 0l0 5.453125l-0.140625 1.546875l0.109375 1.5625l0 2.3125l-1.0 0zm3.890625 -0.84375q0.828125 0 1.46875 -0.375q0.640625 -0.375 1.015625 -1.046875q0.390625 -0.6875 0.390625 -1.59375q0 -0.90625 -0.390625 -1.578125q-0.375 -0.671875 -1.015625 -1.046875q-0.640625 -0.375 -1.46875 -0.375q-0.8125 0 -1.46875 0.375q-0.65625 0.375 -1.03125 1.046875q-0.359375 0.671875 -0.359375 1.578125q0 0.90625 0.359375 1.59375q0.375 0.671875 1.03125 1.046875q0.65625 0.375 1.46875 0.375z" fill-rule="nonzero"/><path fill="#000000" fill-opacity="0.0" d="m65.92126 16.128609l403.937 0l0 48.472443l-403.937 0z" fill-rule="evenodd"/><path fill="#595959" d="m77.29626 48.16861l0 -12.59375l1.640625 0l0 3.421875l-0.171875 -0.59375q0.53125 -1.4375 1.765625 -2.1875q1.25 -0.765625 3.109375 -0.765625l0 1.65625q-0.109375 0 -0.203125 -0.015625q-0.09375 -0.015625 -0.1875 -0.015625q-1.984375 0 -3.125 1.21875q-1.125 1.21875 -1.125 3.4375l0 6.4375l-1.703125 0zm14.671356 0.125q-1.96875 0 -3.46875 -0.828125q-1.484375 -0.828125 -2.328125 -2.28125q-0.828125 -1.453125 -0.828125 -3.328125q0 -1.875 0.796875 -3.3125q0.8125 -1.4375 2.203125 -2.265625q1.40625 -0.828125 3.15625 -0.828125q1.78125 0 3.15625 0.8125q1.390625 0.796875 2.171875 2.25q0.796875 1.453125 0.796875 3.34375q0 0.125 -0.015625 0.265625q0 0.125 0 0.265625l-10.96875 0l0 -1.28125l10.046875 0l-0.671875 0.515625q0 -1.375 -0.59375 -2.4375q-0.578125 -1.078125 -1.59375 -1.671875q-1.0 -0.59375 -2.328125 -0.59375q-1.296875 0 -2.328125 0.59375q-1.03125 0.59375 -1.609375 1.6875q-0.5625 1.078125 -0.5625 2.46875l0 0.265625q0 1.4375 0.625 2.53125q0.640625 1.09375 1.78125 1.703125q1.140625 0.609375 2.609375 0.609375q1.140625 0 2.140625 -0.40625q1.0 -0.40625 1.71875 -1.25l0.953125 1.109375q-0.828125 1.0 -2.09375 1.53125q-1.265625 0.53125 -2.765625 0.53125zm16.667206 -0.125l0 -2.78125l-0.0625 -0.453125l0 -4.65625q0 -1.609375 -0.90625 -2.46875q-0.890625 -0.875 -2.671875 -0.875q-1.21875 0 -2.328125 0.40625q-1.109375 0.40625 -1.875 1.078125l-0.765625 -1.265625q0.953125 -0.8125 2.296875 -1.25q1.34375 -0.453125 2.84375 -0.453125q2.4375 0 3.765625 1.21875q1.34375 1.203125 1.34375 3.671875l0 7.828125l-1.640625 0zm-4.34375 0.125q-1.40625 0 -2.453125 -0.46875q-1.046875 -0.46875 -1.609375 -1.296875q-0.546875 -0.828125 -0.546875 -1.90625q0 -0.984375 0.46875 -1.78125q0.46875 -0.8125 1.53125 -1.296875q1.078125 -0.5 2.875 -0.5l4.34375 0l0 1.265625l-4.296875 0q-1.8125 0 -2.53125 0.65625q-0.703125 0.640625 -0.703125 1.609375q0 1.078125 0.84375 1.734375q0.84375 0.640625 2.34375 0.640625q1.4375 0 2.484375 -0.65625q1.046875 -0.671875 1.53125 -1.921875l0.375 1.1875q-0.46875 1.234375 -1.65625 1.984375q-1.1875 0.75 -3.0 0.75zm15.628708 0q-1.796875 0 -3.234375 -0.8125q-1.421875 -0.828125 -2.234375 -2.28125q-0.8125 -1.453125 -0.8125 -3.34375q0 -1.921875 0.8125 -3.359375q0.8125 -1.4375 2.234375 -2.234375q1.4375 -0.8125 3.234375 -0.8125q1.65625 0 2.953125 0.75q1.3125 0.734375 2.09375 2.171875q0.78125 1.421875 0.78125 3.484375q0 2.046875 -0.765625 3.484375q-0.765625 1.4375 -2.078125 2.203125q-1.296875 0.75 -2.984375 0.75zm0.125 -1.515625q1.34375 0 2.40625 -0.609375q1.0625 -0.609375 1.671875 -1.71875q0.625 -1.125 0.625 -2.59375q0 -1.484375 -0.625 -2.59375q-0.609375 -1.109375 -1.671875 -1.71875q-1.0625 -0.609375 -2.40625 -0.609375q-1.328125 0 -2.390625 0.609375q-1.046875 0.609375 -1.671875 1.71875q-0.625 1.109375 -0.625 2.59375q0 1.46875 0.625 2.59375q0.625 1.109375 1.671875 1.71875q1.0625 0.609375 2.390625 0.609375zm4.75 1.390625l0 -3.796875l0.171875 -2.546875l-0.25 -2.53125l0 -8.9375l1.703125 0l0 17.8125l-1.625 0zm4.00634 1.15625l0 -1.15625l12.0 0l0 1.15625l-12.0 0zm14.3749695 -1.15625l0 -17.8125l1.703125 0l0 17.8125l-1.703125 0zm6.4559784 0l0 -12.59375l1.703125 0l0 12.59375l-1.703125 0zm0.875 -15.390625q-0.53125 0 -0.890625 -0.359375q-0.359375 -0.359375 -0.359375 -0.859375q0 -0.5 0.359375 -0.84375q0.359375 -0.359375 0.890625 -0.359375q0.53125 0 0.890625 0.34375q0.359375 0.328125 0.359375 0.84375q0 0.515625 -0.359375 0.875q-0.34375 0.359375 -0.890625 0.359375zm12.018478 2.671875q1.53125 0 2.6875 0.59375q1.171875 0.578125 1.828125 1.78125q0.65625 1.203125 0.65625 3.03125l0 7.3125l-1.703125 0l0 -7.15625q0 -1.984375 -1.0 -3.0q-0.984375 -1.03125 -2.78125 -1.03125q-1.34375 0 -2.34375 0.546875q-1.0 0.53125 -1.546875 1.5625q-0.53125 1.015625 -0.53125 2.453125l0 6.625l-1.703125 0l0 -12.59375l1.640625 0l0 3.453125l-0.265625 -0.65625q0.59375 -1.359375 1.90625 -2.140625q1.328125 -0.78125 3.15625 -0.78125zm15.145828 12.84375q-1.96875 0 -3.46875 -0.828125q-1.484375 -0.828125 -2.328125 -2.28125q-0.828125 -1.453125 -0.828125 -3.328125q0 -1.875 0.796875 -3.3125q0.8125 -1.4375 2.203125 -2.265625q1.40625 -0.828125 3.15625 -0.828125q1.78125 0 3.15625 0.8125q1.390625 0.796875 2.171875 2.25q0.796875 1.453125 0.796875 3.34375q0 0.125 -0.015625 0.265625q0 0.125 0 0.265625l-10.96875 0l0 -1.28125l10.046875 0l-0.671875 0.515625q0 -1.375 -0.59375 -2.4375q-0.578125 -1.078125 -1.59375 -1.671875q-1.0 -0.59375 -2.328125 -0.59375q-1.296875 0 -2.328125 0.59375q-1.03125 0.59375 -1.609375 1.6875q-0.5625 1.078125 -0.5625 2.46875l0 0.265625q0 1.4375 0.625 2.53125q0.640625 1.09375 1.78125 1.703125q1.140625 0.609375 2.609375 0.609375q1.140625 0 2.140625 -0.40625q1.0 -0.40625 1.71875 -1.25l0.953125 1.109375q-0.828125 1.0 -2.09375 1.53125q-1.265625 0.53125 -2.765625 0.53125zm12.042831 4.53125q-1.328125 -2.1875 -2.0625 -5.046875q-0.71875 -2.875 -0.71875 -6.1875q0 -3.3125 0.71875 -6.203125q0.734375 -2.890625 2.0625 -5.03125l1.625 0q-1.40625 2.46875 -2.078125 5.25q-0.65625 2.765625 -0.65625 5.984375q0 3.21875 0.65625 6.0q0.671875 2.765625 2.078125 5.234375l-1.625 0zm5.208481 0l-1.640625 0q1.453125 -2.46875 2.109375 -5.234375q0.65625 -2.78125 0.65625 -6.0q0 -3.21875 -0.65625 -5.984375q-0.65625 -2.78125 -2.109375 -5.25l1.640625 0q1.359375 2.140625 2.078125 5.03125q0.734375 2.890625 0.734375 6.203125q0 3.3125 -0.734375 6.1875q-0.71875 2.859375 -2.078125 5.046875z" fill-rule="nonzero"/><path fill="#000000" fill-opacity="0.0" d="m256.12204 270.70602l64.75592 0l0 37.165375l-64.75592 0z" fill-rule="evenodd"/><path fill="#000000" d="m266.57516 293.78604l0 -7.6875l1.0 0l0 2.09375l-0.109375 -0.375q0.328125 -0.875 1.078125 -1.328125q0.765625 -0.46875 1.890625 -0.46875l0 1.015625q-0.046875 0 -0.109375 0q-0.0625 -0.015625 -0.125 -0.015625q-1.203125 0 -1.90625 0.734375q-0.6875 0.734375 -0.6875 2.109375l0 3.921875l-1.03125 0zm8.952148 0.078125q-1.203125 0 -2.109375 -0.5q-0.90625 -0.515625 -1.421875 -1.40625q-0.515625 -0.890625 -0.515625 -2.03125q0 -1.140625 0.484375 -2.015625q0.5 -0.875 1.359375 -1.375q0.859375 -0.515625 1.921875 -0.515625q1.09375 0 1.921875 0.5q0.84375 0.484375 1.328125 1.375q0.484375 0.875 0.484375 2.03125q0 0.078125 -0.015625 0.15625q0 0.078125 0 0.171875l-6.6875 0l0 -0.78125l6.140625 0l-0.40625 0.3125q0 -0.84375 -0.359375 -1.484375q-0.359375 -0.65625 -0.984375 -1.015625q-0.609375 -0.375 -1.421875 -0.375q-0.78125 0 -1.421875 0.375q-0.625 0.359375 -0.984375 1.015625q-0.34375 0.65625 -0.34375 1.515625l0 0.15625q0 0.875 0.390625 1.546875q0.390625 0.671875 1.078125 1.046875q0.703125 0.375 1.59375 0.375q0.703125 0 1.3125 -0.25q0.609375 -0.25 1.046875 -0.765625l0.578125 0.671875q-0.5 0.609375 -1.28125 0.9375q-0.765625 0.328125 -1.6875 0.328125zm10.17926 -0.078125l0 -1.703125l-0.03125 -0.28125l0 -2.84375q0 -0.96875 -0.5625 -1.5q-0.546875 -0.53125 -1.625 -0.53125q-0.75 0 -1.421875 0.25q-0.671875 0.25 -1.140625 0.65625l-0.46875 -0.78125q0.578125 -0.484375 1.390625 -0.75q0.828125 -0.28125 1.734375 -0.28125q1.5 0 2.3125 0.75q0.8125 0.734375 0.8125 2.234375l0 4.78125l-1.0 0zm-2.640625 0.078125q-0.875 0 -1.515625 -0.28125q-0.625 -0.296875 -0.96875 -0.796875q-0.328125 -0.515625 -0.328125 -1.171875q0 -0.59375 0.28125 -1.078125q0.28125 -0.5 0.9375 -0.796875q0.65625 -0.3125 1.75 -0.3125l2.65625 0l0 0.78125l-2.625 0q-1.109375 0 -1.546875 0.40625q-0.4375 0.390625 -0.4375 0.96875q0 0.671875 0.515625 1.0625q0.515625 0.390625 1.4375 0.390625q0.875 0 1.515625 -0.390625q0.640625 -0.40625 0.9375 -1.171875l0.234375 0.71875q-0.296875 0.765625 -1.03125 1.21875q-0.71875 0.453125 -1.8125 0.453125zm9.537842 0q-1.09375 0 -1.96875 -0.5q-0.875 -0.5 -1.375 -1.390625q-0.5 -0.890625 -0.5 -2.046875q0 -1.171875 0.5 -2.046875q0.5 -0.875 1.375 -1.359375q0.875 -0.5 1.96875 -0.5q1.015625 0 1.8125 0.453125q0.796875 0.453125 1.265625 1.328125q0.484375 0.875 0.484375 2.125q0 1.25 -0.46875 2.140625q-0.46875 0.875 -1.265625 1.34375q-0.796875 0.453125 -1.828125 0.453125zm0.078125 -0.921875q0.8125 0 1.46875 -0.375q0.65625 -0.375 1.015625 -1.046875q0.375 -0.6875 0.375 -1.59375q0 -0.90625 -0.375 -1.578125q-0.359375 -0.671875 -1.015625 -1.046875q-0.65625 -0.375 -1.46875 -0.375q-0.8125 0 -1.46875 0.375q-0.640625 0.375 -1.015625 1.046875q-0.375 0.671875 -0.375 1.578125q0 0.90625 0.375 1.59375q0.375 0.671875 1.015625 1.046875q0.65625 0.375 1.46875 0.375zm2.890625 0.84375l0 -2.3125l0.109375 -1.5625l-0.140625 -1.546875l0 -5.453125l1.03125 0l0 10.875l-1.0 0zm5.671356 2.84375q-0.796875 -1.328125 -1.25 -3.078125q-0.4375 -1.765625 -0.4375 -3.78125q0 -2.015625 0.4375 -3.78125q0.453125 -1.78125 1.25 -3.078125l1.0 0q-0.859375 1.515625 -1.265625 3.203125q-0.40625 1.6875 -0.40625 3.65625q0 1.96875 0.40625 3.65625q0.40625 1.6875 1.265625 3.203125l-1.0 0zm3.181305 0l-0.984375 0q0.875 -1.515625 1.265625 -3.203125q0.40625 -1.6875 0.40625 -3.65625q0 -1.96875 -0.40625 -3.65625q-0.390625 -1.6875 -1.265625 -3.203125l0.984375 0q0.84375 1.296875 1.28125 3.078125q0.4375 1.765625 0.4375 3.78125q0 2.015625 -0.4375 3.78125q-0.4375 1.75 -1.28125 3.078125z" fill-rule="nonzero"/></g></svg>